<svg xmlns="http://www.w3.org/2000/svg" width="32" height="38" fill="none"><path fill-rule="evenodd" fill="#333335" d="M29.16 15.755L6.47 2.493C5.918 2.17 5.3 2 4.655 2c-.643 0-1.278.175-1.834.505C1.698 3.17 1 4.4 1 5.738v26.525c0 1.328.698 2.566 1.82 3.233.557.33 1.19.505 1.834.505a3.6 3.6 0 0 0 1.814-.493l22.69-13.263C30.294 21.58 31 20.337 31 19s-.705-2.58-1.84-3.245zm-9.832-3.136l-3.115 4.437L8.76 6.442l10.567 6.177zM4.512 33.72c-.203-.02-.4-.08-.58-.186-.442-.262-.716-.75-.716-1.272V5.737a1.48 1.48 0 0 1 .717-1.272 1.42 1.42 0 0 1 .577-.189L14.847 19 4.512 33.72zm4.247-2.163l7.452-10.614 3.115 4.437L8.76 31.558zm19.3-11.28L21.26 24.25 17.576 19l3.686-5.25 6.797 3.973a1.48 1.48 0 0 1 0 2.553z"/></svg>