<svg xmlns="http://www.w3.org/2000/svg"
 xmlns:xlink="http://www.w3.org/1999/xlink"
 width="94px" height="95px"  viewBox="0 0 94 95">
<path fill-rule="evenodd"  fill="#ffffff"
 d="M92.18933,49.21747 C92.85974,48.133057 92.85974,46.753906 92.18933,45.655884 C92.18933,45.655884 89.416016,41.157043 89.416016,41.157043 C88.95593,40.42035 88.81128,39.523315 88.98212,38.679443 C88.98212,38.679443 90.086365,33.48462 90.086365,33.48462 C90.34924,32.22583 89.88922,30.926819 88.89026,30.136536 C88.89026,30.136536 84.776184,26.88269 84.776184,26.88269 C84.105835,26.347168 83.65881,25.57074 83.54059,24.700684 C83.54059,24.700684 82.81769,19.438232 82.81769,19.438232 C82.64679,18.166199 81.76605,17.108215 80.56995,16.706665 C80.56995,16.706665 75.614624,15.072937 75.614624,15.072937 C74.79968,14.805176 74.11615,14.215881 73.721924,13.452393 C73.721924,13.452393 71.29028,8.752869 71.29028,8.752869 C70.72504,7.6550293 69.594604,6.971924 68.385315,6.971924 C68.34595,6.971924 68.30646,6.971924 68.26709,6.971924 C68.26709,6.971924 63.06195,7.1724854 63.06195,7.1724854 C63.022583,7.1724854 62.983093,7.1724854 62.943726,7.1724854 C62.128662,7.1724854 61.340088,6.864746 60.735474,6.302063 C60.735474,6.302063 56.871155,2.7410889 56.871155,2.7410889 C56.253174,2.1784058 55.4646,1.8704224 54.662903,1.8704224 C54.24231,1.8704224 53.821655,1.9506226 53.427307,2.124817 C53.427307,2.124817 48.603394,4.133423 48.603394,4.133423 C48.209106,4.2940063 47.788452,4.38739 47.36786,4.38739 C46.947205,4.38739 46.52661,4.30719 46.132385,4.133423 C46.132385,4.133423 41.30835,2.124817 41.30835,2.124817 C40.90094,1.963562 40.480225,1.8704224 40.072754,1.8704224 C39.271057,1.8704224 38.48236,2.164978 37.864685,2.7410889 C37.864685,2.7410889 34.000122,6.302063 34.000122,6.302063 C33.39557,6.864746 32.606934,7.1724854 31.792114,7.1724854 C31.752625,7.1724854 31.713135,7.1724854 31.673706,7.1724854 C31.673706,7.1724854 26.468811,6.971924 26.468811,6.971924 C26.4292,6.971924 26.38971,6.971924 26.350464,6.971924 C25.141174,6.971924 24.010803,7.6550293 23.445496,8.752869 C23.445496,8.752869 21.013855,13.452393 21.013855,13.452393 C20.619629,14.229736 19.936035,14.805176 19.121094,15.072937 C19.121094,15.072937 14.16571,16.706665 14.16571,16.706665 C12.969543,17.094788 12.08905,18.166199 11.918091,19.438232 C11.918091,19.438232 11.19519,24.700684 11.19519,24.700684 C11.076843,25.57074 10.629944,26.347168 9.959656,26.88269 C9.959656,26.88269 5.7929688,30.136536 5.7929688,30.136536 C4.7938843,30.926819 4.3338623,32.22583 4.5967407,33.48462 C4.5967407,33.48462 5.7008667,38.679443 5.7008667,38.679443 C5.8848877,39.5365 5.727173,40.42035 5.26709,41.157043 C5.26709,41.157043 2.4937744,45.655884 2.4937744,45.655884 C1.8233643,46.740723 1.8233643,48.11963 2.4937744,49.21747 C2.4937744,49.21747 5.26709,53.71649 5.26709,53.71649 C5.727173,54.45294 5.871826,55.35022 5.7008667,56.193848 C5.7008667,56.193848 4.5967407,61.38916 4.5967407,61.38916 C4.3338623,62.647522 4.7938843,63.946716 5.7929688,64.73657 C5.7929688,64.73657 9.906982,67.9906 9.906982,67.9906 C10.577393,68.52588 11.024292,69.30255 11.142517,70.173035 C11.142517,70.173035 11.86554,75.4353 11.86554,75.4353 C12.036316,76.707275 12.917175,77.76489 14.113159,78.166626 C14.113159,78.166626 17.872314,79.39862 17.872314,79.39862 C17.872314,79.39862 19.081604,79.800354 19.081604,79.800354 C19.896667,80.0683 20.580017,80.65723 20.974365,81.42114 C20.974365,81.42114 23.406006,86.12091 23.406006,86.12091 C23.971252,87.218506 25.101685,87.90155 26.310974,87.90155 C26.350342,87.90155 26.38971,87.90155 26.4292,87.90155 C26.4292,87.90155 31.634277,87.70062 31.634277,87.70062 C31.673706,87.70062 31.713135,87.70062 31.752625,87.70062 C32.567566,87.70062 33.3562,88.00879 33.960754,88.571045 C33.960754,88.571045 37.825195,92.13263 37.825195,92.13263 C38.442993,92.69495 39.23169,93.00311 40.033447,93.00311 C40.454163,93.00311 40.874634,92.922485 41.268982,92.748535 C41.268982,92.748535 46.092773,90.74005 46.092773,90.74005 C46.48712,90.57953 46.907837,90.48572 47.32837,90.48572 C47.748962,90.48572 48.169678,90.5661 48.564026,90.74005 C48.564026,90.74005 53.387817,92.748535 53.387817,92.748535 C53.795227,92.90973 54.21588,93.00311 54.623413,93.00311 C55.42517,93.00311 56.21393,92.70874 56.831665,92.13263 C56.831665,92.13263 60.695984,88.571045 60.695984,88.571045 C61.3006,88.00879 62.089355,87.70062 62.904236,87.70062 C62.943726,87.70062 62.983093,87.70062 63.02246,87.70062 C63.02246,87.70062 68.22772,87.90155 68.22772,87.90155 C68.26697,87.90155 68.30646,87.90155 68.34595,87.90155 C69.555115,87.90155 70.68567,87.218506 71.25079,86.12091 C71.25079,86.12091 73.682434,81.42114 73.682434,81.42114 C74.07678,80.64404 74.760254,80.0683 75.57526,79.800354 C75.57526,79.800354 76.78436,79.39862 76.78436,79.39862 C76.78436,79.39862 80.54358,78.166626 80.54358,78.166626 C81.739746,77.77875 82.62036,76.707275 82.79132,75.4353 C82.79132,75.4353 83.51428,70.173035 83.51428,70.173035 C83.63251,69.30255 84.07947,68.52588 84.749756,67.9906 C84.749756,67.9906 88.86389,64.73657 88.86389,64.73657 C89.862854,63.946716 90.32294,62.647522 90.06006,61.38916 C90.06006,61.38916 88.95593,56.193848 88.95593,56.193848 C88.77191,55.336792 88.92963,54.45294 89.38965,53.71649 C89.38965,53.71649 92.18933,49.21747 92.18933,49.21747 ZM79.13727,61.1214 C78.46686,62.714478 77.70447,64.254456 76.82385,65.72742 C75.4043,68.09778 73.70874,70.30725 71.75018,72.28888 C68.58246,75.515686 64.888916,78.04651 60.788025,79.813965 C56.529297,81.648865 52.00763,82.57208 47.354614,82.57208 C42.70166,82.57208 38.180115,81.648865 33.921387,79.813965 C29.807251,78.04651 26.126831,75.515686 22.959229,72.28888 C21.000671,70.29364 19.305115,68.09778 17.885498,65.72742 C17.004883,64.254456 16.22931,62.72809 15.572205,61.1214 C13.771484,56.782715 12.864502,52.176758 12.864502,47.436523 C12.864502,42.696777 13.771484,38.09082 15.572205,33.751892 C17.307251,29.561035 19.791382,25.811707 22.959229,22.584839 C26.126831,19.357788 29.820557,16.827026 33.921387,15.05957 C38.180115,13.225281 42.70166,12.301025 47.354614,12.301025 C52.00763,12.301025 56.529297,13.225281 60.788025,15.05957 C64.90216,16.827026 68.58246,19.357788 71.75018,22.584839 C74.91791,25.811707 77.40234,29.574219 79.13727,33.751892 C80.93799,38.09082 81.84491,42.696777 81.84491,47.436523 C81.84491,52.176758 80.93799,56.782715 79.13727,61.1214 ZM47.341553,16.304749 C30.464478,16.304749 16.781494,30.243958 16.781494,47.436523 C16.781494,50.288635 17.162659,53.060364 17.872314,55.684692 C21.421387,68.87427 33.277344,78.56879 47.341553,78.56879 C61.40564,78.56879 73.26184,68.87427 76.81067,55.684692 C77.52051,53.060364 77.90173,50.288635 77.90173,47.436523 C77.90173,30.243958 64.21875,16.304749 47.341553,16.304749 Z"/>
</svg>