<svg xmlns="http://www.w3.org/2000/svg"
 xmlns:xlink="http://www.w3.org/1999/xlink"
 width="36px" height="37px"  viewBox="0 0 36 37" fill="none">
<path fill-rule="evenodd"  fill="#ffffff"
 d="M21.903809,22.961731 C21.903809,22.961731 21.903809,17.952942 21.903809,17.952942 C21.903809,17.042908 21.163635,16.302612 20.25415,16.302612 C20.25415,16.302612 4.857483,16.302612 4.857483,16.302612 C3.947937,16.302612 3.2078247,17.042908 3.2078247,17.952942 C3.2078247,17.952942 3.2078247,22.961731 3.2078247,22.961731 C1.9547119,23.217346 1.0084229,24.32898 1.0084229,25.657288 C1.0084229,25.657288 1.0084229,28.959229 1.0084229,28.959229 C1.0084229,28.959229 1.0084229,34.46228 1.0084229,34.46228 C1.0084229,34.765747 1.2546997,35.012207 1.5581665,35.012207 C1.5581665,35.012207 3.7577515,35.012207 3.7577515,35.012207 C4.0612183,35.012207 4.307617,34.765747 4.307617,34.46228 C4.307617,34.46228 4.307617,32.81128 4.307617,32.81128 C4.307617,32.81128 20.803955,32.81128 20.803955,32.81128 C20.803955,32.81128 20.803955,34.46228 20.803955,34.46228 C20.803955,34.765747 21.050293,35.012207 21.353699,35.012207 C21.353699,35.012207 23.553345,35.012207 23.553345,35.012207 C23.856873,35.012207 24.103271,34.765747 24.103271,34.46228 C24.103271,34.46228 24.103271,28.959229 24.103271,28.959229 C24.103271,28.959229 24.103271,25.657288 24.103271,25.657288 C24.103271,24.32898 23.156982,23.217346 21.903809,22.961731 ZM4.307617,17.952942 C4.307617,17.649902 4.5545654,17.402954 4.857483,17.402954 C4.857483,17.402954 20.25415,17.402954 20.25415,17.402954 C20.557068,17.402954 20.803955,17.649902 20.803955,17.952942 C20.803955,17.952942 20.803955,22.906006 20.803955,22.906006 C20.803955,22.906006 19.704163,22.906006 19.704163,22.906006 C19.704163,22.906006 19.704163,20.70465 19.704163,20.70465 C19.704163,19.794434 18.96405,19.053955 18.054626,19.053955 C18.054626,19.053955 14.755371,19.053955 14.755371,19.053955 C13.845703,19.053955 13.105713,19.794434 13.105713,20.70465 C13.105713,20.70465 13.105713,22.906006 13.105713,22.906006 C13.105713,22.906006 12.00592,22.906006 12.00592,22.906006 C12.00592,22.906006 12.00592,20.70465 12.00592,20.70465 C12.00592,19.794434 11.265747,19.053955 10.356262,19.053955 C10.356262,19.053955 7.057068,19.053955 7.057068,19.053955 C6.147461,19.053955 5.4074097,19.794434 5.4074097,20.70465 C5.4074097,20.70465 5.4074097,22.906006 5.4074097,22.906006 C5.4074097,22.906006 4.307617,22.906006 4.307617,22.906006 C4.307617,22.906006 4.307617,17.952942 4.307617,17.952942 ZM18.60437,20.70465 C18.60437,20.70465 18.60437,22.906006 18.60437,22.906006 C18.60437,22.906006 14.205383,22.906006 14.205383,22.906006 C14.205383,22.906006 14.205383,20.70465 14.205383,20.70465 C14.205383,20.401428 14.452332,20.154053 14.755371,20.154053 C14.755371,20.154053 18.054626,20.154053 18.054626,20.154053 C18.357544,20.154053 18.60437,20.401428 18.60437,20.70465 ZM10.906189,20.70465 C10.906189,20.70465 10.906189,22.906006 10.906189,22.906006 C10.906189,22.906006 6.50708,22.906006 6.50708,22.906006 C6.50708,22.906006 6.50708,20.70465 6.50708,20.70465 C6.50708,20.401428 6.7540283,20.154053 7.057068,20.154053 C7.057068,20.154053 10.356262,20.154053 10.356262,20.154053 C10.659302,20.154053 10.906189,20.401428 10.906189,20.70465 ZM23.003601,33.91162 C23.003601,33.91162 21.903809,33.91162 21.903809,33.91162 C21.903809,33.91162 21.903809,32.260925 21.903809,32.260925 C21.903809,31.957458 21.65741,31.710754 21.353699,31.710754 C21.353699,31.710754 3.7577515,31.710754 3.7577515,31.710754 C3.4542236,31.710754 3.2078247,31.957458 3.2078247,32.260925 C3.2078247,32.260925 3.2078247,33.91162 3.2078247,33.91162 C3.2078247,33.91162 2.1081543,33.91162 2.1081543,33.91162 C2.1081543,33.91162 2.1081543,29.5094 2.1081543,29.5094 C2.1081543,29.5094 23.003601,29.5094 23.003601,29.5094 C23.003601,29.5094 23.003601,33.91162 23.003601,33.91162 ZM23.003601,28.409058 C23.003601,28.409058 2.1081543,28.409058 2.1081543,28.409058 C2.1081543,28.409058 2.1081543,25.657288 2.1081543,25.657288 C2.1081543,24.74707 2.8482666,24.006348 3.7577515,24.006348 C3.7577515,24.006348 5.9571533,24.006348 5.9571533,24.006348 C5.9571533,24.006348 11.455933,24.006348 11.455933,24.006348 C11.455933,24.006348 13.655518,24.006348 13.655518,24.006348 C13.655518,24.006348 19.154358,24.006348 19.154358,24.006348 C19.154358,24.006348 21.353699,24.006348 21.353699,24.006348 C22.263428,24.006348 23.003601,24.74707 23.003601,25.657288 C23.003601,25.657288 23.003601,28.409058 23.003601,28.409058 ZM33.45117,22.906006 C33.45117,22.906006 25.75293,22.906006 25.75293,22.906006 C25.44934,22.906006 25.202942,23.152466 25.202942,23.45642 C25.202942,23.45642 25.202942,27.85846 25.202942,27.85846 C25.202942,27.85846 25.202942,31.710754 25.202942,31.710754 C25.202942,31.710754 26.302734,31.710754 26.302734,31.710754 C26.302734,31.710754 26.302734,28.409058 26.302734,28.409058 C26.302734,28.409058 32.901367,28.409058 32.901367,28.409058 C32.901367,28.409058 32.901367,31.710754 32.901367,31.710754 C32.901367,31.710754 34.001038,31.710754 34.001038,31.710754 C34.001038,31.710754 34.001038,27.85846 34.001038,27.85846 C34.001038,27.85846 34.001038,23.45642 34.001038,23.45642 C34.001038,23.152466 33.75464,22.906006 33.45117,22.906006 ZM32.901367,27.308289 C32.901367,27.308289 26.302734,27.308289 26.302734,27.308289 C26.302734,27.308289 26.302734,24.006348 26.302734,24.006348 C26.302734,24.006348 32.901367,24.006348 32.901367,24.006348 C32.901367,24.006348 32.901367,27.308289 32.901367,27.308289 ZM28.502258,25.107117 C28.502258,25.107117 30.701782,25.107117 30.701782,25.107117 C30.701782,25.107117 30.701782,26.207703 30.701782,26.207703 C30.701782,26.207703 28.502258,26.207703 28.502258,26.207703 C28.502258,26.207703 28.502258,25.107117 28.502258,25.107117 ZM32.323303,18.329163 C32.323303,18.329163 31.223633,15.027466 31.223633,15.027466 C31.148376,14.802856 30.938843,14.651245 30.701782,14.651245 C30.701782,14.651245 28.502258,14.651245 28.502258,14.651245 C28.265259,14.651245 28.055847,14.802856 27.980408,15.028076 C27.980408,15.028076 26.880737,18.329346 26.880737,18.329346 C26.824646,18.497375 26.853271,18.681946 26.956482,18.8255 C27.059937,18.9693 27.226013,19.053955 27.402466,19.053955 C27.402466,19.053955 29.052124,19.053955 29.052124,19.053955 C29.052124,19.053955 29.052124,20.70465 29.052124,20.70465 C29.052124,20.70465 27.952393,20.70465 27.952393,20.70465 C27.952393,20.70465 27.952393,21.80542 27.952393,21.80542 C27.952393,21.80542 31.251587,21.80542 31.251587,21.80542 C31.251587,21.80542 31.251587,20.70465 31.251587,20.70465 C31.251587,20.70465 30.151917,20.70465 30.151917,20.70465 C30.151917,20.70465 30.151917,19.053955 30.151917,19.053955 C30.151917,19.053955 31.801575,19.053955 31.801575,19.053955 C31.978027,19.053955 32.144104,18.9693 32.247437,18.825317 C32.35089,18.681519 32.378967,18.496765 32.323303,18.329163 ZM28.165222,17.952942 C28.165222,17.952942 28.898682,15.752258 28.898682,15.752258 C28.898682,15.752258 30.305847,15.752258 30.305847,15.752258 C30.305847,15.752258 31.038818,17.952942 31.038818,17.952942 C31.038818,17.952942 28.165222,17.952942 28.165222,17.952942 ZM33.676025,9.196472 C33.676025,9.196472 17.729614,2.0420532 17.729614,2.0420532 C17.586182,1.9789429 17.42279,1.9789429 17.279846,2.0420532 C17.279846,2.0420532 1.333435,9.196472 1.333435,9.196472 C1.135315,9.2855835 1.0084229,9.482117 1.0084229,9.698608 C1.0084229,9.698608 1.0084229,16.302612 1.0084229,16.302612 C1.0084229,16.302612 2.1081543,16.302612 2.1081543,16.302612 C2.1081543,16.302612 2.1081543,10.054626 2.1081543,10.054626 C2.1081543,10.054626 17.5047,3.1481934 17.5047,3.1481934 C17.5047,3.1481934 32.901367,10.055237 32.901367,10.055237 C32.901367,10.055237 32.901367,16.302612 32.901367,16.302612 C32.901367,16.302612 34.001038,16.302612 34.001038,16.302612 C34.001038,16.302612 34.001038,9.698608 34.001038,9.698608 C34.001038,9.482117 33.874023,9.2855835 33.676025,9.196472 ZM21.300476,9.607605 C21.300476,9.607605 20.215576,9.790039 20.215576,9.790039 C20.241455,9.94043 20.25415,10.0946045 20.25415,10.249207 C20.25415,11.766174 19.02069,13.000732 17.5047,13.000732 C15.988586,13.000732 14.755371,11.766174 14.755371,10.249207 C14.755371,8.731567 15.988586,7.4974976 17.5047,7.4974976 C17.819336,7.4974976 18.128296,7.550232 18.421875,7.6539917 C18.421875,7.6539917 18.788086,6.616577 18.788086,6.616577 C18.37616,6.47052 17.944641,6.397339 17.5047,6.397339 C15.382202,6.397339 13.655518,8.124878 13.655518,10.249207 C13.655518,12.372925 15.382202,14.10083 17.5047,14.10083 C19.62738,14.10083 21.353699,12.372925 21.353699,10.249207 C21.353699,10.033325 21.335754,9.817932 21.300476,9.607605 ZM20.965088,6.5581055 C20.965088,6.5581055 17.5047,10.020996 17.5047,10.020996 C17.5047,10.020996 16.793701,9.310059 16.793701,9.310059 C16.793701,9.310059 16.016296,10.087585 16.016296,10.087585 C16.016296,10.087585 17.115967,11.188538 17.115967,11.188538 C17.223206,11.295349 17.363953,11.3497925 17.5047,11.3497925 C17.645508,11.3497925 17.786255,11.295349 17.893494,11.188538 C17.893494,11.188538 21.742676,7.3360596 21.742676,7.3360596 C21.742676,7.3360596 20.965088,6.5581055 20.965088,6.5581055 Z"/>
</svg>
