<svg xmlns="http://www.w3.org/2000/svg" width="48" height="48" viewBox="0 0 48 48">
  <defs>
    <style>
      .cls-1 {
        fill: #333335;
        fill-rule: evenodd;
      }
    </style>
  </defs>
  <path id="Forma_1" data-name="Forma 1" class="cls-1" d="M1325.16,3394.75l-22.69-13.26a3.612,3.612,0,0,0-3.65.01,3.785,3.785,0,0,0-1.82,3.24v26.52a3.785,3.785,0,0,0,1.82,3.24,3.612,3.612,0,0,0,3.65.01l22.69-13.27A3.781,3.781,0,0,0,1325.16,3394.75Zm-9.83-3.13-3.12,4.44-7.45-10.62Zm-14.82,21.1a1.37,1.37,0,0,1-.58-0.19,1.477,1.477,0,0,1-.71-1.27v-26.52a1.465,1.465,0,0,1,.71-1.27,1.37,1.37,0,0,1,.58-0.19l10.34,14.72Zm4.25-2.16,7.45-10.62,3.12,4.44Zm19.3-11.28-6.8,3.97-3.68-5.25,3.68-5.25,6.8,3.97A1.5,1.5,0,0,1,1324.06,3399.28Z" transform="translate(-1288 -3374)"/>
</svg>
