<svg xmlns="http://www.w3.org/2000/svg"
 xmlns:xlink="http://www.w3.org/1999/xlink"
 width="32px" height="32px"  viewBox="0 0 32 32">
<path fill-rule="evenodd"  fill="#ffffff"
 d="M9.652954,15.516113 C9.652954,15.149475 9.35791,14.853455 8.993286,14.853455 C8.62854,14.853455 8.333496,15.149475 8.333496,15.516113 C8.333496,17.256592 10.244385,19.647217 10.462158,19.914307 C10.5928955,20.073181 10.782227,20.156372 10.973022,20.156372 C11.119873,20.156372 11.268188,20.106995 11.391113,20.005981 C11.6727295,19.773987 11.713257,19.356262 11.482666,19.072144 C10.775269,18.20636 9.652954,16.475037 9.652954,15.516113 ZM23.506714,14.853455 C23.142212,14.853455 22.847046,15.149475 22.847046,15.516113 C22.847046,16.471863 21.724854,18.204895 21.017334,19.073425 C20.786743,19.356262 20.82788,19.773987 21.109375,20.005981 C21.231934,20.106995 21.380005,20.156372 21.52771,20.156372 C21.718262,20.156372 21.907104,20.073181 22.037964,19.914307 C22.255615,19.647217 24.166504,17.256592 24.166504,15.516113 C24.166504,15.149475 23.87146,14.853455 23.506714,14.853455 ZM16.25,14.853455 C15.885376,14.853455 15.590454,15.149475 15.590454,15.516113 C15.590454,15.516113 15.590454,19.493225 15.590454,19.493225 C15.590454,19.85968 15.885376,20.156372 16.25,20.156372 C16.614746,20.156372 16.90979,19.85968 16.90979,19.493225 C16.90979,19.493225 16.90979,15.516113 16.90979,15.516113 C16.90979,15.149475 16.614746,14.853455 16.25,14.853455 ZM23.506714,4.2470093 C23.106934,4.2470093 22.689209,4.300171 22.255371,4.3809814 C20.80249,2.678772 18.65149,1.5956421 16.25,1.5956421 C13.848633,1.5956421 11.69751,2.678772 10.244751,4.3809814 C9.810791,4.300171 9.393066,4.246338 8.993286,4.246338 C4.9918213,4.2470093 1.7366943,7.5178223 1.7366943,11.538757 C1.7366943,14.293457 3.282837,16.798096 5.710327,18.036682 C5.710327,18.036682 5.6973877,28.05487 5.6973877,28.05487 C5.6966553,28.777771 5.9763184,29.457214 6.484741,29.968689 C6.9935303,30.481018 7.6694336,30.762573 8.389038,30.762573 C8.389038,30.762573 24.113647,30.762573 24.113647,30.762573 C25.598022,30.762573 26.805298,29.549316 26.805298,28.058105 C26.805298,28.058105 26.805298,18.027344 26.805298,18.027344 C29.223755,16.784912 30.76355,14.28479 30.76355,11.538757 C30.76355,7.5178223 27.508179,4.2470093 23.506714,4.2470093 ZM25.48584,28.058105 C25.48584,28.818176 24.869873,29.436829 24.113525,29.436829 C24.113525,29.436829 8.388794,29.436829 8.388794,29.436829 C8.022339,29.436829 7.6777344,29.293274 7.418091,29.032532 C7.1590576,28.771362 7.0161133,28.425598 7.0167236,28.055725 C7.0167236,28.055725 7.0202637,25.459473 7.0202637,25.459473 C7.0202637,25.459473 25.48584,25.459473 25.48584,25.459473 C25.48584,25.459473 25.48584,28.058105 25.48584,28.058105 ZM25.89441,16.99524 C25.859497,17.009277 25.82666,17.02649 25.795654,17.046265 C25.712524,17.098145 25.644165,17.16687 25.593384,17.245728 C25.54187,17.324036 25.506958,17.414429 25.49292,17.51178 C25.48706,17.548584 25.485107,17.585632 25.48584,17.62323 C25.48584,17.62323 25.48584,24.133484 25.48584,24.133484 C25.48584,24.133484 7.0218506,24.133484 7.0218506,24.133484 C7.0218506,24.133484 7.0301514,17.632385 7.0301514,17.632385 C7.030884,17.596252 7.0289307,17.559448 7.023926,17.523499 C7.0096436,17.422913 6.9730225,17.329773 6.9195557,17.248962 C6.8692627,17.17279 6.803467,17.1073 6.723633,17.056885 C6.690674,17.035828 6.656006,17.017761 6.619751,17.002869 C4.454712,16.051392 3.0560303,13.908325 3.0560303,11.538757 C3.0560303,8.248169 5.719116,5.5723267 8.993286,5.5723267 C9.121216,5.5723267 9.256226,5.5880737 9.388672,5.598694 C8.721436,6.763916 8.333496,8.111206 8.333496,9.549866 C8.333496,9.916138 8.62854,10.213196 8.993286,10.213196 C9.35791,10.213196 9.652954,9.916138 9.652954,9.549866 C9.652954,5.8949585 12.612549,2.9212036 16.25,2.9212036 C19.88733,2.9212036 22.847046,5.8949585 22.847046,9.549866 C22.847046,9.916138 23.142212,10.213196 23.506714,10.213196 C23.87146,10.213196 24.166504,9.916138 24.166504,9.549866 C24.166504,8.111206 23.778564,6.7643433 23.111206,5.598694 C23.243652,5.5880737 23.378784,5.5723267 23.506714,5.5723267 C26.780884,5.5723267 29.44397,8.249207 29.44397,11.538757 C29.44397,13.900269 28.05127,16.040344 25.89441,16.99524 Z"/>
</svg>