<svg xmlns="http://www.w3.org/2000/svg"
 xmlns:xlink="http://www.w3.org/1999/xlink"
 width="24px" height="19px"  viewBox="0 0 24 19" fill="none">
<path fill-rule="evenodd"  fill="#ffffff"
 d="M21.854065,5.499756 C21.284485,2.7833252 19.247986,1.0328369 16.624695,1.0328369 C15.157776,1.0328369 13.569885,1.6055908 12.016724,2.6855469 C10.446106,1.572998 8.858398,1.0001221 7.3740845,1.0001221 C4.7507324,1.0001221 2.6969604,2.7669678 2.1447144,5.5161133 C1.3163452,9.589844 3.974121,15.005615 11.757751,17.950928 C11.844116,17.983398 11.93042,17.999756 12.016724,17.999756 C12.103027,17.999756 12.18927,17.983398 12.275574,17.950928 C20.04187,14.940552 22.682495,9.541138 21.854065,5.499756 ZM12.016724,16.609375 C5.182312,13.926147 2.81781,9.246582 3.5253906,5.7615967 C3.9395752,3.6835938 5.458435,2.3254395 7.3740845,2.3254395 C8.668518,2.3254395 10.118225,2.9143066 11.567993,4.043579 C11.826843,4.239502 12.18927,4.239502 12.44812,4.043579 C13.897888,2.9470215 15.330322,2.3745117 16.624695,2.3745117 C18.540405,2.3745117 20.04187,3.699707 20.473328,5.7615967 C21.18103,9.213867 18.833862,13.876953 12.016724,16.609375 Z"/>
</svg>
