<svg xmlns="http://www.w3.org/2000/svg"
 xmlns:xlink="http://www.w3.org/1999/xlink"
 width="42px" height="27px"  viewBox="0 0 42 27">
<path fill-rule="evenodd"  fill="#ffffff"
 d="M39.75287,22.41034 C39.75287,22.41034 33.66565,12.083496 33.66565,12.083496 C33.34247,11.535278 32.763733,11.208191 32.11725,11.208191 C31.470764,11.208191 30.892029,11.535278 30.568848,12.083496 C30.568848,12.083496 29.234802,14.346558 29.234802,14.346558 C29.234802,14.346558 26.966614,10.343262 26.966614,10.343262 C26.96582,10.341553 26.965088,10.340027 26.964111,10.338562 C26.964111,10.338562 26.580505,9.661621 26.580505,9.661621 C26.580505,9.661621 30.11853,9.661621 30.11853,9.661621 C31.595764,9.661621 32.797485,8.485168 32.797485,7.040039 C32.797485,5.854248 32.005005,4.8429565 30.870544,4.522888 C30.855774,4.4873657 30.840576,4.4523315 30.824646,4.4172363 C30.700684,4.142212 30.37201,4.017578 30.090942,4.1384277 C29.809753,4.2598267 29.682312,4.581604 29.806213,4.8568115 C29.84961,4.953125 29.888184,5.0531006 29.920776,5.1535034 C29.984497,5.3499756 30.156555,5.494812 30.364685,5.5267334 C31.129395,5.6445312 31.684326,6.28125 31.684326,7.040039 C31.684326,7.8847656 30.981873,8.572144 30.11853,8.572144 C30.11853,8.572144 25.963318,8.572144 25.963318,8.572144 C25.963318,8.572144 24.091309,5.267273 24.091309,5.267273 C24.449036,3.9887085 25.650879,3.0792847 27.022095,3.0792847 C27.4516,3.0792847 27.866577,3.164795 28.25531,3.3338623 C28.536255,3.4563599 28.865051,3.3321533 28.98993,3.057434 C29.114746,2.7826538 28.988342,2.4608765 28.707275,2.3388062 C28.175232,2.107605 27.608154,1.9902344 27.022095,1.9902344 C25.498657,1.9902344 24.128113,2.8121948 23.40625,4.058655 C23.40625,4.058655 22.87085,3.1141968 22.87085,3.1141968 C22.472168,2.4100342 21.743042,1.989624 20.920471,1.989624 C20.09784,1.989624 19.368774,2.4100342 18.969849,3.1141968 C18.969849,3.1141968 15.345032,9.512146 15.345032,9.512146 C15.216736,9.444519 15.081543,9.386658 14.938843,9.343506 C14.394836,8.078552 13.13446,7.2491455 11.70874,7.2491455 C10.009216,7.2491455 8.592773,8.409241 8.271057,10.002136 C7.5442505,10.2977295 7.0496826,10.99762 7.0496826,11.793884 C7.0496826,12.864441 7.939575,13.734924 9.033142,13.734924 C9.033142,13.734924 12.952759,13.734924 12.952759,13.734924 C12.952759,13.734924 10.377014,18.281128 10.377014,18.281128 C10.377014,18.281128 9.308838,16.771606 9.308838,16.771606 C8.957825,16.275635 8.380005,15.979858 7.76355,15.979858 C7.1467896,15.979858 6.569092,16.275635 6.2180176,16.771606 C6.2180176,16.771606 2.3127441,22.289978 2.3127441,22.289978 C1.9373779,22.820557 1.8942261,23.5047 2.2000732,24.076172 C2.5061035,24.647827 3.1056519,25.00299 3.7650757,25.00299 C3.7650757,25.00299 7.513611,25.00299 7.513611,25.00299 C7.513611,25.00299 11.859131,25.00299 11.859131,25.00299 C12.166626,25.00299 12.4157715,24.75885 12.4157715,24.458313 C12.4157715,24.157593 12.166626,23.913696 11.859131,23.913696 C11.859131,23.913696 8.458618,23.913696 8.458618,23.913696 C8.458618,23.913696 14.225342,13.734924 14.225342,13.734924 C14.225342,13.734924 14.247437,13.734924 14.247437,13.734924 C15.381287,13.734924 16.324951,12.926941 16.51062,11.868713 C16.51062,11.868713 17.167603,11.585632 17.167603,11.585632 C17.764282,11.328735 18.46582,11.398315 18.998108,11.766235 C18.998108,11.766235 21.179077,13.273193 21.179077,13.273193 C21.620483,13.577942 22.133911,13.728943 22.645874,13.728943 C23.23413,13.728943 23.820496,13.529907 24.293701,13.136047 C24.293701,13.136047 26.320251,11.448486 26.320251,11.448486 C26.320251,11.448486 29.345276,16.787964 29.345276,16.787964 C29.4469,16.967896 29.636719,17.069153 29.832458,17.069153 C29.92389,17.069153 30.016357,17.046814 30.101929,17.000671 C30.370667,16.85431 30.467834,16.523193 30.318787,16.260376 C30.318787,16.260376 29.864502,15.458557 29.864502,15.458557 C29.864502,15.458557 31.532898,12.627502 31.532898,12.627502 C31.70868,12.329346 32.00006,12.297241 32.117126,12.297241 C32.23407,12.297241 32.525574,12.329346 32.701233,12.627502 C32.701233,12.627502 38.788452,22.954529 38.788452,22.954529 C38.95862,23.243347 38.84497,23.49768 38.788208,23.594055 C38.731445,23.690186 38.562805,23.913696 38.222412,23.913696 C38.222412,23.913696 34.654724,23.913696 34.654724,23.913696 C34.654724,23.913696 31.5979,18.518066 31.5979,18.518066 C31.448914,18.255371 31.11029,18.159485 30.84137,18.305786 C30.57251,18.451477 30.475464,18.783264 30.62439,19.046082 C30.62439,19.046082 33.38208,23.913696 33.38208,23.913696 C33.38208,23.913696 14.9626465,23.913696 14.9626465,23.913696 C14.655518,23.913696 14.40625,24.157593 14.40625,24.458313 C14.40625,24.75885 14.655518,25.00299 14.9626465,25.00299 C14.9626465,25.00299 34.326965,25.00299 34.326965,25.00299 C34.326965,25.00299 38.222534,25.00299 38.222534,25.00299 C38.86078,25.00299 39.43286,24.679688 39.752197,24.138916 C40.071594,23.59784 40.0719,22.951965 39.75287,22.41034 ZM7.185974,23.913696 C7.185974,23.913696 3.7650757,23.913696 3.7650757,23.913696 C3.517456,23.913696 3.3011475,23.785645 3.1861572,23.570618 C3.071228,23.356262 3.086792,23.109375 3.2277832,22.910095 C3.2277832,22.910095 7.1330566,17.391968 7.1330566,17.391968 C7.2784424,17.18695 7.5081177,17.068909 7.7634277,17.068909 C8.018616,17.068909 8.248413,17.18695 8.393677,17.391968 C8.393677,17.391968 9.774841,19.343628 9.774841,19.343628 C9.774841,19.343628 7.185974,23.913696 7.185974,23.913696 ZM14.247437,12.646057 C14.247437,12.646057 13.904175,12.646057 13.904175,12.646057 C13.902954,12.646057 13.901794,12.646057 13.900635,12.646057 C13.900635,12.646057 9.03302,12.646057 9.03302,12.646057 C8.553162,12.646057 8.16272,12.263672 8.16272,11.793884 C8.16272,11.384277 8.461426,11.032715 8.872925,10.957642 C9.11853,10.913208 9.303772,10.714111 9.325745,10.470642 C9.434021,9.274597 10.480713,8.338013 11.708679,8.338013 C12.756348,8.338013 13.673157,8.99408 13.989807,9.970459 C14.05365,10.167175 14.225464,10.311768 14.433716,10.343872 C14.685974,10.382568 14.907837,10.495972 15.078003,10.659485 C15.09906,10.686279 15.12323,10.711182 15.149658,10.734131 C15.326355,10.937256 15.431213,11.200745 15.431213,11.487183 C15.431091,12.1258545 14.9002075,12.646057 14.247437,12.646057 ZM23.57251,12.306641 C23.075073,12.720703 22.35498,12.752563 21.821228,12.383179 C21.821228,12.383179 19.64032,10.876221 19.64032,10.876221 C18.790833,10.289246 17.671692,10.178833 16.719543,10.588867 C16.719543,10.588867 16.408081,10.722839 16.408081,10.722839 C16.350403,10.565063 16.276001,10.4151 16.185242,10.275391 C16.185242,10.275391 19.943481,3.6420288 19.943481,3.6420288 C20.143188,3.2896118 20.508606,3.0786743 20.920471,3.0786743 C21.332458,3.0786743 21.697876,3.2896118 21.89746,3.6420288 C21.89746,3.6420288 25.145142,9.374756 25.145142,9.374756 C25.146057,9.376038 25.14679,9.377319 25.147705,9.378784 C25.147705,9.378784 25.769775,10.47699 25.769775,10.47699 C25.769775,10.47699 23.57251,12.306641 23.57251,12.306641 ZM23.010254,17.53125 C23.010254,17.53125 23.010254,16.484924 23.010254,16.484924 C23.010254,15.974548 22.585815,15.559204 22.064209,15.559204 C22.064209,15.559204 19.923218,15.559204 19.923218,15.559204 C19.401611,15.559204 18.977234,15.974548 18.977234,16.484924 C18.977234,16.484924 18.977234,17.53125 18.977234,17.53125 C18.977234,18.619507 19.881714,19.504822 20.993713,19.504822 C22.105469,19.504822 23.010254,18.619507 23.010254,17.53125 ZM20.090332,17.53125 C20.090332,17.53125 20.090332,16.648254 20.090332,16.648254 C20.090332,16.648254 21.897095,16.648254 21.897095,16.648254 C21.897095,16.648254 21.897095,17.53125 21.897095,17.53125 C21.897095,18.01892 21.491882,18.415771 20.993713,18.415771 C20.495544,18.415771 20.090332,18.01892 20.090332,17.53125 ZM26.62146,16.884766 C26.62146,16.884766 26.62146,16.038086 26.62146,16.038086 C26.62146,15.737366 26.372314,15.4938965 26.064941,15.4938965 C25.757446,15.4938965 25.508423,15.737366 25.508423,16.038086 C25.508423,16.038086 25.508423,16.884766 25.508423,16.884766 C25.508423,17.185486 25.757446,17.4292 26.064941,17.4292 C26.372314,17.4292 26.62146,17.185486 26.62146,16.884766 ZM16.478882,16.884766 C16.478882,16.884766 16.478882,16.038086 16.478882,16.038086 C16.478882,15.737366 16.229614,15.4938965 15.922485,15.4938965 C15.615112,15.4938965 15.365967,15.737366 15.365967,16.038086 C15.365967,16.038086 15.365967,16.884766 15.365967,16.884766 C15.365967,17.185486 15.615112,17.4292 15.922485,17.4292 C16.229614,17.4292 16.478882,17.185486 16.478882,16.884766 Z"/>
</svg>