<svg xmlns="http://www.w3.org/2000/svg"
 xmlns:xlink="http://www.w3.org/1999/xlink"
 width="25px" height="25px"  viewBox="0 0 25 25">
<path fill-rule="evenodd"  fill="#b5b5b5"
 d="M22.375427,17.766113 C22.375427,17.766113 19.3432,14.715942 19.3432,14.715942 C18.935913,14.308716 18.390625,14.084106 17.807983,14.084106 C17.2016,14.084106 16.629028,14.323853 16.196106,14.759766 C16.196106,14.759766 15.015747,15.946289 15.015747,15.946289 C14.098511,15.433716 12.879517,14.728516 11.61377,13.456177 C10.34967,12.184326 9.648376,10.9626465 9.135864,10.0354 C9.135864,10.0354 10.317383,8.848022 10.317383,8.848022 C11.195801,7.963135 11.213806,6.543091 10.357544,5.6828613 C10.357544,5.6828613 7.3259277,2.6346436 7.3259277,2.6346436 C6.919861,2.2253418 6.3745728,1.9998779 5.790344,1.9998779 C5.19751,1.9998779 4.6366577,2.2294922 4.206238,2.6469727 C3.9458618,2.857788 2.6392212,4.0177 2.1522217,6.409546 C1.470398,9.757202 3.0369873,12.978027 7.5594482,17.527222 C12.61145,22.605225 16.924316,23.000122 18.125916,23.000122 C18.375977,23.000122 18.526917,22.984375 18.5672,22.979736 C20.92334,22.702148 21.766846,21.649658 22.382874,20.881714 C23.18103,19.88623 23.178162,18.576172 22.375427,17.766113 ZM21.369263,20.060425 C20.790344,20.782227 20.24353,21.46399 18.415771,21.679443 C18.414795,21.679443 18.31488,21.690918 18.125916,21.690918 C17.050842,21.690918 13.17804,21.323853 8.4800415,16.601562 C4.3095703,12.406372 2.8457642,9.529785 3.4276733,6.671753 C3.852417,4.5859375 4.9801025,3.6993408 5.023926,3.6655273 C5.023926,3.6655273 5.062805,3.6365967 5.062805,3.6365967 C5.062805,3.6365967 5.096924,3.6020508 5.096924,3.6020508 C5.2851562,3.4128418 5.531372,3.309082 5.790222,3.309082 C6.02594,3.309082 6.2439575,3.397461 6.404785,3.5598145 C6.404785,3.5598145 9.437134,6.6087646 9.437134,6.6087646 C9.786011,6.9593506 9.767395,7.548828 9.39624,7.9230957 C9.39624,7.9230957 8.060059,9.265503 8.060059,9.265503 C8.060059,9.265503 8.038208,9.288696 8.038208,9.288696 C7.6899414,9.674072 7.730896,10.1953125 7.9227295,10.534546 C8.476135,11.539185 9.234314,12.914429 10.693115,14.38147 C12.146973,15.843506 13.512939,16.605103 14.508911,17.160156 C14.608582,17.216797 14.814453,17.310791 15.072144,17.310791 C15.376465,17.310791 15.655823,17.18164 15.86261,16.945557 C15.86261,16.945557 17.116577,15.684937 17.116577,15.684937 C17.303772,15.496948 17.549255,15.392944 17.80774,15.392944 C18.043945,15.392944 18.263123,15.482178 18.423584,15.642578 C18.423584,15.642578 21.453857,18.690552 21.453857,18.690552 C21.838745,19.078857 21.67987,19.673096 21.369263,20.060425 ZM14.709717,5.206909 C15.828308,5.336426 17.145264,6.017578 18.06482,6.9420166 C18.993042,7.8757324 19.672241,9.213135 19.7948,10.350098 C19.831055,10.685303 20.113037,10.933716 20.441162,10.933716 C20.4646,10.933716 20.488403,10.932617 20.512146,10.930298 C20.869507,10.891113 21.127808,10.568115 21.08899,10.208618 C20.93396,8.772095 20.127808,7.1657715 18.985474,6.016968 C17.853638,4.878784 16.27246,4.0701904 14.858643,3.9066162 C14.501709,3.8649902 14.178711,4.123169 14.137512,4.4819336 C14.096436,4.8410645 14.352539,5.1654053 14.709717,5.206909 ZM14.101624,7.9486084 C14.706543,8.018555 15.543762,8.469849 16.092163,9.021118 C16.645264,9.577515 17.09491,10.427124 17.161072,11.042114 C17.197327,11.377563 17.47931,11.626099 17.807434,11.626099 C17.830872,11.626099 17.854553,11.624878 17.878357,11.622314 C18.235779,11.58313 18.49408,11.260132 18.455261,10.901123 C18.342102,9.85144 17.64917,8.735962 17.012634,8.095337 C16.381836,7.4611816 15.283081,6.7677 14.250488,6.647949 C13.892944,6.6063232 13.570496,6.864624 13.529419,7.223633 C13.488281,7.5826416 13.744568,7.9072266 14.101624,7.9486084 Z"/>
</svg>