<svg xmlns="http://www.w3.org/2000/svg" width="37" height="42" fill="none"><path fill-rule="evenodd" fill="#333335" d="M29.728 21.722c-.05-4.94 4.06-7.308 4.242-7.426-2.308-3.352-5.904-3.812-7.186-3.865-3.06-.308-5.97 1.788-7.525 1.788s-3.946-1.743-6.484-1.697c-3.336.05-6.41 1.925-8.13 4.89-3.466 5.968-.887 14.81 2.5 19.65 1.65 2.37 3.62 5.03 6.203 4.935 2.49-.1 3.43-1.598 6.438-1.598s3.854 1.598 6.488 1.55c2.678-.05 4.374-2.415 6.014-4.79 1.895-2.75 2.676-5.4 2.722-5.546-.06-.027-5.222-2-5.274-7.89zM24.78 7.228C26.15 5.576 27.077 3.286 26.824 1c-1.976.08-4.37 1.306-5.788 2.954-1.272 1.46-2.385 3.794-2.087 6.034 2.206.17 4.457-1.112 5.83-2.76z"/></svg>