<svg xmlns="http://www.w3.org/2000/svg"
 xmlns:xlink="http://www.w3.org/1999/xlink"
 width="21px" height="20px"  viewBox="0 0 21 20">
<path fill-rule="evenodd"  fill="#ffffff"
 d="M14.59729,7.3499146 C14.59729,7.3499146 14.068909,7.3499146 14.068909,7.3499146 C13.365356,7.3499146 12.724609,8.004944 12.724609,8.724396 C12.724609,8.724396 12.724609,15.664429 12.724609,15.664429 C12.724609,16.376038 13.365356,17.024048 14.069031,17.024048 C14.069031,17.024048 14.597412,17.024048 14.597412,17.024048 C15.345764,17.024048 15.792847,16.332886 15.792847,15.664429 C15.792847,15.664429 15.792847,8.724396 15.792847,8.724396 C15.792725,8.048767 15.345642,7.3499146 14.59729,7.3499146 ZM15.320679,15.664429 C15.320679,16.098083 15.050171,16.546387 14.59729,16.546387 C14.59729,16.546387 14.068909,16.546387 14.068909,16.546387 C13.620544,16.546387 13.196533,16.117615 13.196533,15.664429 C13.196533,15.664429 13.196533,8.724396 13.196533,8.724396 C13.196533,8.271851 13.628662,7.8277893 14.068909,7.8277893 C14.068909,7.8277893 14.59729,7.8277893 14.59729,7.8277893 C15.050171,7.8277893 15.320679,8.283539 15.320679,8.724396 C15.320679,8.724396 15.320679,15.664429 15.320679,15.664429 ZM7.672119,7.3499146 C7.672119,7.3499146 7.1436768,7.3499146 7.1436768,7.3499146 C6.45874,7.3499146 5.880249,7.979645 5.880249,8.724396 C5.880249,8.724396 5.880249,15.664429 5.880249,15.664429 C5.880249,16.40155 6.45874,17.024048 7.1436768,17.024048 C7.1436768,17.024048 7.672119,17.024048 7.672119,17.024048 C8.363831,17.024048 8.948364,16.40155 8.948364,15.664429 C8.948364,15.664429 8.948364,8.724396 8.948364,8.724396 C8.948364,7.979645 8.363831,7.3499146 7.672119,7.3499146 ZM8.476318,15.664429 C8.476318,16.134216 8.100464,16.546387 7.672119,16.546387 C7.672119,16.546387 7.1436768,16.546387 7.1436768,16.546387 C6.670227,16.546387 6.352173,16.09021 6.352173,15.664429 C6.352173,15.664429 6.352173,8.724396 6.352173,8.724396 C6.352173,8.30014 6.677307,7.8277893 7.1436768,7.8277893 C7.1436768,7.8277893 7.672119,7.8277893 7.672119,7.8277893 C8.100586,7.8277893 8.476318,8.246765 8.476318,8.724396 C8.476318,8.724396 8.476318,15.664429 8.476318,15.664429 ZM11.134644,7.3499146 C11.134644,7.3499146 10.606384,7.3499146 10.606384,7.3499146 C9.911621,7.3499146 9.302368,7.992401 9.302368,8.724396 C9.302368,8.724396 9.302368,15.664673 9.302368,15.664673 C9.302368,16.389038 9.911621,17.024048 10.606384,17.024048 C10.606384,17.024048 11.134766,17.024048 11.134766,17.024048 C11.816162,17.024048 12.370605,16.414307 12.370605,15.664673 C12.370605,15.664673 12.370605,8.724396 12.370605,8.724396 C12.370483,7.966675 11.816162,7.3499146 11.134644,7.3499146 ZM11.89856,15.664429 C11.89856,16.088501 11.606506,16.546387 11.134644,16.546387 C11.134644,16.546387 10.606384,16.546387 10.606384,16.546387 C10.171082,16.546387 9.774414,16.125916 9.774414,15.664429 C9.774414,15.664429 9.774414,8.724396 9.774414,8.724396 C9.774414,8.255249 10.170959,7.8277893 10.606384,7.8277893 C10.606384,7.8277893 11.134766,7.8277893 11.134766,7.8277893 C11.591736,7.8277893 11.898682,8.291412 11.898682,8.724396 C11.898682,8.724396 11.898682,15.664429 11.898682,15.664429 C11.898682,15.664429 11.89856,15.664429 11.89856,15.664429 ZM19.116333,16.307556 C19.116333,16.307556 18.034851,16.307556 18.034851,16.307556 C18.034851,16.307556 18.034851,7.8277893 18.034851,7.8277893 C18.034851,7.8277893 19.116333,7.8277893 19.116333,7.8277893 C19.33014,7.8277893 19.50647,7.6865845 19.56543,7.46817 C19.625977,7.244232 19.556702,6.9390564 19.307251,6.7901917 C19.307251,6.7901917 10.928467,1.7826538 10.928467,1.7826538 C10.85437,1.7382202 10.762634,1.7382202 10.688599,1.7826538 C10.688599,1.7826538 2.3097534,6.7836 2.3097534,6.7836 C2.0598145,6.9324646 1.9908447,7.2399597 2.0518188,7.466675 C2.1109009,7.686157 2.2867432,7.8277893 2.5,7.8277893 C2.5,7.8277893 3.6380615,7.8277893 3.6380615,7.8277893 C3.6380615,7.8277893 3.6380615,16.307556 3.6380615,16.307556 C3.6380615,16.307556 2.5,16.307556 2.5,16.307556 C2.1004639,16.307556 1.749939,16.67865 1.749939,17.101685 C1.749939,17.101685 1.749939,17.802856 1.749939,17.802856 C1.749939,18.21521 2.100586,18.576538 2.5,18.576538 C2.5,18.576538 19.116333,18.576538 19.116333,18.576538 C19.538513,18.576538 19.923035,18.207764 19.923035,17.802856 C19.923035,17.802856 19.923035,17.101685 19.923035,17.101685 C19.923035,16.693542 19.530945,16.307556 19.116333,16.307556 ZM19.450989,17.802856 C19.450989,17.941284 19.272644,18.098877 19.116333,18.098877 C19.116333,18.098877 2.5,18.098877 2.5,18.098877 C2.3570557,18.098877 2.2219849,17.954895 2.2219849,17.802856 C2.2219849,17.802856 2.2219849,17.101685 2.2219849,17.101685 C2.2219849,16.944946 2.3623047,16.785217 2.5,16.785217 C2.5,16.785217 3.8740845,16.785217 3.8740845,16.785217 C4.0042725,16.785217 4.1100464,16.67804 4.1100464,16.546387 C4.1100464,16.546387 4.1100464,7.588745 4.1100464,7.588745 C4.1100464,7.456909 4.0042725,7.3499146 3.8740845,7.3499146 C3.8740845,7.3499146 2.5101318,7.3499146 2.5101318,7.3499146 C2.5046387,7.3358765 2.4990845,7.3082275 2.5056763,7.2723083 C2.512207,7.2363586 2.5285645,7.207428 2.5494385,7.1948853 C2.5494385,7.1948853 10.808411,2.265625 10.808411,2.265625 C10.808411,2.265625 19.067383,7.2016907 19.067383,7.2016907 C19.088318,7.2142334 19.104797,7.2423096 19.111206,7.277191 C19.117615,7.3105774 19.112549,7.336731 19.107666,7.3499146 C19.107666,7.3499146 17.79889,7.3499146 17.79889,7.3499146 C17.66858,7.3499146 17.562927,7.456909 17.562927,7.588745 C17.562927,7.588745 17.562927,16.546387 17.562927,16.546387 C17.562927,16.67804 17.66858,16.785217 17.79889,16.785217 C17.79889,16.785217 19.116333,16.785217 19.116333,16.785217 C19.266357,16.785217 19.450989,16.959839 19.450989,17.101685 C19.450989,17.101685 19.450989,17.802856 19.450989,17.802856 Z"/>
</svg>