<svg xmlns="http://www.w3.org/2000/svg"
 xmlns:xlink="http://www.w3.org/1999/xlink"
 width="20px" height="14px"  viewBox="0 0 20 14">
<path fill-rule="evenodd"  fill="#ffffff"
 d="M17.737183,3.4189453 C17.41632,3.222412 17.0177,3.196045 16.671997,3.348999 C16.671997,3.348999 14.412231,4.349182 14.412231,4.349182 C14.412231,4.349182 14.412231,4.312134 14.412231,4.312134 C14.412231,3.7962036 13.974365,3.3759766 13.435913,3.3759766 C13.435913,3.3759766 12.050537,3.3759766 12.050537,3.3759766 C12.050537,3.3759766 12.050537,1.9606934 12.050537,1.9606934 C12.050537,1.4926147 11.653198,1.1115112 11.164856,1.1115112 C11.164856,1.1115112 1.7182007,1.1115112 1.7182007,1.1115112 C1.5552368,1.1115112 1.4229736,1.237793 1.4229736,1.3943481 C1.4229736,1.5512695 1.5552368,1.6776123 1.7182007,1.6776123 C1.7182007,1.6776123 11.164856,1.6776123 11.164856,1.6776123 C11.327576,1.6776123 11.460083,1.8043823 11.460083,1.9606934 C11.460083,1.9606934 11.460083,3.3759766 11.460083,3.3759766 C11.460083,3.3759766 2.399231,3.3759766 2.399231,3.3759766 C1.8608398,3.3762207 1.4229736,3.7962036 1.4229736,4.312134 C1.4229736,4.312134 1.4229736,11.498047 1.4229736,11.498047 C1.4229736,12.013977 1.8608398,12.434204 2.399231,12.434204 C2.399231,12.434204 13.435913,12.434204 13.435913,12.434204 C13.974365,12.434204 14.412231,12.01416 14.412231,11.498047 C14.412231,11.498047 14.412231,11.460815 14.412231,11.460815 C14.412231,11.460815 16.671997,12.460999 16.671997,12.460999 C16.821411,12.5269165 16.98053,12.559692 17.139038,12.559692 C17.347778,12.559692 17.554993,12.503113 17.737427,12.391052 C18.05835,12.194519 18.249878,11.858704 18.249878,11.493347 C18.249878,11.493347 18.249878,4.3170776 18.249878,4.3170776 C18.249878,3.9516602 18.05835,3.6159058 17.737183,3.4189453 ZM13.821838,11.498047 C13.821838,11.702209 13.648804,11.868103 13.435913,11.868103 C13.435913,11.868103 2.399231,11.868103 2.399231,11.868103 C2.1864014,11.868103 2.0134888,11.702209 2.0134888,11.498047 C2.0134888,11.498047 2.0134888,4.312134 2.0134888,4.312134 C2.0134888,4.107971 2.1864014,3.9421387 2.399231,3.9421387 C2.399231,3.9421387 13.435913,3.9421387 13.435913,3.9421387 C13.648804,3.9421387 13.821838,4.107971 13.821838,4.312134 C13.821838,4.312134 13.821838,4.6102905 13.821838,4.6102905 C13.821838,4.6102905 13.821838,11.199646 13.821838,11.199646 C13.821838,11.199646 13.821838,11.498047 13.821838,11.498047 ZM17.659485,11.493347 C17.659485,11.667114 17.571838,11.820679 17.41919,11.914429 C17.266602,12.00824 17.084778,12.020996 16.919739,11.947205 C16.919739,11.947205 14.412231,10.8377075 14.412231,10.8377075 C14.412231,10.8377075 14.412231,4.97229 14.412231,4.97229 C14.412231,4.97229 16.919434,3.862976 16.919434,3.862976 C17.084229,3.7894287 17.266296,3.801941 17.418945,3.895752 C17.571472,3.989563 17.659485,4.1433105 17.659485,4.3170776 C17.659485,4.3170776 17.659485,11.493347 17.659485,11.493347 Z"/>
</svg>