<svg xmlns="http://www.w3.org/2000/svg" xmlns:xlink="http://www.w3.org/1999/xlink" width="32" height="32" fill="none"><path fill="#c4c4c4" d="M0 0h32v32H0z"/><mask id="A" fill="#fff"><use xlink:href="#C" fill-rule="evenodd"/></mask><g filter="url(#B)"><use xlink:href="#C" fill-rule="evenodd" fill="#fff"/></g><path d="M7.078 23.226l.803-.596-.803.596zm7.006 7.985l-.706.71.706-.71zm3.833 0l.706.71-.706-.71zm7.006-7.985l-.803-.596.803.596zm-7.725 7.265l-.706-.708.706.708zm-2.394 0l.706-.71-.706.71zM25.33 13.173l-1 .022 1-.022zM16.1 4.066l.01-1-.01 1zm-5.942 2.048l.625.78h0l-.625-.78zm-.038.747l-.707.707.006.006.006.006.694-.72zm.008.007l.707-.708-.006-.006-.006-.006-.694.72zm.67.038l-.625-.78h-.001l.626.78zm4.685-1.808h1V4.036l-1.06.064.06.998zm.494 1.34l.03-1-.03 1zm.525-1.34l.06-.998-1.06-.064v1.063h1zm7.8 7.777v1h1.063l-.064-1.06-.998.06zm-1.34.493l-1-.03 1 .03zm1.34.523l.998.06.064-1.06H24.3v1zm-7.8 7.776h-1v1.062l1.06-.064-.06-.998zm-.493-1.34l.03-1h-.001l-.03 1zm-.525 1.34l-.06.998 1.06.064v-1.062h-1zM7.7 13.89v-1H6.64l.064 1.06.998-.06zm1.34-.492l-1-.03h0l1 .03zm-1.34-.524l-.998-.06-.064 1.06H7.7v-1zm1.512-4.28l-.815-.58.815.58zm-.058-.642l.707-.708-.01-.008-.698.716zm-.007-.007l.72-.694-.007-.007-.007-.007-.706.708zm-.77.068l-.816-.578.816.578zm-1.71 5.533l-1 .017 1-.017zm9.123 9.15l-.022 1 .022-1zm5.135-14.233l.707-.708-.707.708zm-.543-.115l.358.934-.358-.934zm-6.24 2.396l-.358-.934-.07.027-.065.037.493.87zm-.003.001l.373.928.056-.022.052-.03-.48-.877zm-.04.018l.324.946h.058l.055-.027-.437-.9zm-.008.003L13.7 9.85l-.034.014-.032.017.46.887zm-.043.025l.52.854.01-.006-.53-.848zm-.002.001l.543.84.17-.1.114-.167-.827-.563zm-.082.066l.704.71.003-.003-.706-.708zm-.067.082l.702.712.076-.075.06-.1-.837-.547zm0 .001l-.538-.843-.18.115-.118.18.836.55zm-.026.044l-.888-.46-.004.008-.004.008.895.445zm-.003.007l.894.448.01-.018.008-.02-.91-.41zm-.018.04l.93.37.001-.003-.93-.366zm-.001.003l-.93-.367-.003.008.933.36zm-2.4 6.23l-.933-.36.933.36zm.115.542l-.707.707.002.002.705-.71zm.543.115l-.358-.934-.003.001.362.932zm6.24-2.395l.358.934.086-.033.08-.048-.523-.852zm.003-.002L18 14.6l-.184.07-.144.134.68.733zm.04-.018l.427.904.025-.012.024-.013-.476-.88zm.007-.003l-.463-.886-.013.007.476.88zm.044-.026l.542.84.09-.057.075-.074-.706-.71zm.001 0v1h.302l.25-.167-.553-.833zm.082-.067l.705.71h.001l-.706-.708zm.093-.127l.9.456.005-.01.004-.01-.9-.438zm.003-.005l.86.508.02-.036.018-.038-.9-.434zm.018-.04l.934.358.015-.04.012-.042-.96-.276zm.001-.003l-.933-.36-.006.017-.006.017.945.326zm2.4-6.23l-.933-.36v.001l.933.36zm-8.227 7.557l-.933-.36-.81 2.1 2.1-.807-.358-.934zm1.707-4.43l.707-.708-1.087-1.085-.552 1.434.933.36zm2.732 2.727l.358.934 1.44-.552-1.09-1.09-.706.708zm.72-.72l-.706.708 1.087 1.085.552-1.434-.933-.36zm-2.732-2.727l-.358-.934-1.44.553 1.09 1.09.706-.708zm4.44-1.704l.933.36.81-2.1-2.1.807.358.934zM16-1C8.058-1 1.595 5.45 1.595 13.383h2C3.595 6.557 9.16 1 16 1v-2zM1.595 13.383c0 2.862 1.683 6.398 4.68 10.44L7.88 22.63c-2.952-3.98-4.286-7.068-4.286-9.247h-2zm4.68 10.44c2.404 3.24 5.194 6.196 7.103 8.098l1.412-1.417c-1.876-1.868-4.588-4.744-6.908-7.872L6.275 23.82zm7.103 8.098C14.102 32.64 15.053 33 16 33v-2c-.44 0-.878-.167-1.21-.498l-1.41 1.417zM16 33c.947 0 1.898-.36 2.622-1.08l-1.41-1.417c-.332.33-.77.498-1.21.498v2zm2.622-1.08c1.91-1.902 4.7-4.857 7.103-8.098l-1.606-1.19c-2.32 3.128-5.033 6.004-6.908 7.872l1.41 1.417zm7.103-8.098c2.997-4.04 4.68-7.576 4.68-10.44h-2c0 2.18-1.334 5.267-4.286 9.247l1.606 1.192zm4.68-10.44C30.406 5.45 23.943-1 16-1v2c6.84 0 12.406 5.557 12.406 12.383h2zm-13.914 16.4a.7.7 0 0 1-.983 0L14.097 31.2a2.7 2.7 0 0 0 3.806 0l-1.412-1.417zm-.983 0c-1.668-1.66-4.426-4.554-6.76-7.683-1.168-1.565-2.213-3.167-2.963-4.687-.757-1.535-1.172-2.906-1.172-4.03h-2c0 1.567.563 3.26 1.378 4.914.823 1.668 1.944 3.378 3.153 5 2.42 3.242 5.256 6.214 6.952 7.904l1.412-1.417zm-10.896-16.4C4.613 7.118 9.72 2.016 16 2.016v-2C8.62.016 2.613 6 2.613 13.383h2zM16 2.016c6.28 0 11.387 5.1 11.387 11.366h2C29.387 6 23.38.016 16 .016v2zm11.387 11.366c0 1.124-.415 2.495-1.172 4.03-.75 1.52-1.795 3.123-2.963 4.688-2.335 3.13-5.093 6.022-6.76 7.683l1.412 1.417c1.697-1.7 4.533-4.662 6.953-7.904 1.21-1.62 2.33-3.33 3.153-5 .816-1.654 1.378-3.347 1.378-4.914h-2zm-1.057-.232C26.208 7.6 21.668 3.13 16.12 3.066l-.023 2c4.472.052 8.134 3.67 8.233 8.13l2-.044zM16.12 3.066a10.3 10.3 0 0 0-6.579 2.268l1.25 1.56a8.3 8.3 0 0 1 5.305-1.829l.023-2zm-6.58 2.268c-.706.566-.746 1.61-.12 2.234l1.414-1.415a.5.5 0 0 1-.043.741l-1.25-1.56zM9.435 7.58l.008.007 1.388-1.44-.008-.007-1.388 1.44zm-.005-.005c.54.538 1.4.592 2.002.1l-1.25-1.56c.202-.162.487-.14.663.035L9.43 7.576zm2 .11a7.28 7.28 0 0 1 4.12-1.59L15.43 4.1a9.28 9.28 0 0 0-5.249 2.026l1.25 1.56zm3.06-2.59v.8h2v-.8h-2zm0 .8c0 .767.594 1.503 1.464 1.53l.06-2a.48.48 0 0 1 .477.471h-2zm1.463 1.53a1.51 1.51 0 0 0 1.555-1.508h-2a.49.49 0 0 1 .505-.492l-.06 2zM17.51 5.93v-.83h-2v.83h2zm-1.06.167c3.677.223 6.63 3.172 6.852 6.84l1.996-.12c-.285-4.68-4.044-8.43-8.727-8.714l-.12 1.996zm7.85 5.778h-.81v2h.81v-2zm-.81 0c-.764 0-1.504.6-1.53 1.463l2 .06c-.01.316-.263.477-.47.477v-2zm-1.53 1.463a1.51 1.51 0 0 0 1.508 1.553v-2a.49.49 0 0 1 .491.507l-2-.06zm1.508 1.553h.832v-2h-.832v2zm-.166-1.06a7.32 7.32 0 0 1-6.852 6.839l.12 1.996a9.32 9.32 0 0 0 8.727-8.714l-1.996-.12zm-5.792 7.837v-.81h-2v.81h2zm0-.81c0-.766-.593-1.502-1.463-1.53l-.06 2c-.312-.01-.476-.26-.476-.47h2zm-1.464-1.53a1.51 1.51 0 0 0-1.554 1.508h2a.49.49 0 0 1-.505.491l.06-2zm-1.554 1.508v.83h2v-.83h-2zm1.06-.167c-3.677-.223-6.63-3.172-6.852-6.84l-1.996.12c.284 4.68 4.044 8.43 8.727 8.714l.12-1.996zM7.7 14.89h.81v-2H7.7v2zm.81 0c.763 0 1.504-.59 1.53-1.462l-2-.06a.48.48 0 0 1 .469-.478v2zm1.53-1.462a1.51 1.51 0 0 0-1.508-1.554v2a.49.49 0 0 1-.491-.507l2 .06zm-1.508-1.554H7.7v2h.832v-2zm.166 1.06a7.24 7.24 0 0 1 1.329-3.762l-1.63-1.158a9.24 9.24 0 0 0-1.695 4.799l1.996.12zm1.33-3.762a1.5 1.5 0 0 0-.166-1.929L8.45 8.66a.5.5 0 0 1-.05-.645l1.63 1.16zm-.175-1.938c-.004-.003.005.005.015.015l-1.44 1.387c.013.013.023.024.028.028l1.397-1.43zm.001.001c-.667-.666-1.758-.555-2.292.198l1.63 1.157c-.17.24-.53.284-.752.06l1.413-1.416zm-2.292.198c-1.225 1.728-1.933 3.847-1.893 6.13l2-.034c-.032-1.84.538-3.545 1.525-4.938L7.562 7.435zm-1.893 6.13c.095 5.52 4.577 10.013 10.1 10.134l.044-2c-4.453-.097-8.07-3.727-8.145-8.17l-2 .034zm10.1 10.134c5.88.128 10.7-4.673 10.56-10.546l-2 .044c.105 4.73-3.774 8.606-8.517 8.503l-.044 2zm5.863-15.94a1.51 1.51 0 0 0-1.608-.341l.717 1.867a.49.49 0 0 1-.522-.111l1.413-1.415zm-1.608-.34l-6.24 2.396.717 1.867 6.24-2.396-.717-1.867zm-6.374 2.46a.99.99 0 0 1 .091-.046l.027-.01-.022.01c-.02.01-.052.023-.087.042l.963 1.753a1.02 1.02 0 0 1-.085.042l-.024.01.03-.013a1.03 1.03 0 0 0 .093-.046l-.986-1.74zm.117-.056a1.61 1.61 0 0 0-.103.046l.875 1.798a.51.51 0 0 1-.025.011l-.747-1.855zm.01-.001c-.035.012-.06.023-.072.028l.783 1.84a.95.95 0 0 1-.064.024l-.647-1.892zm-.146.062a1.63 1.63 0 0 0-.111.064l1.06 1.697c-.007.004-.014.008-.025.014l-.923-1.774zm-.102.058c.02-.012.036-.02.047-.027.024-.013-.005.002-.038.02-.082.05-.21.14-.318.3l1.653 1.126c-.107.157-.235.25-.316.297-.032.02-.06.033-.054.03l.018-.01c.01-.006.027-.015.047-.027l-1.04-1.71zm-.025.016c-.087.057-.17.123-.245.198l1.413 1.416a.5.5 0 0 1-.081.065l-1.086-1.68zm-.242.195a1.5 1.5 0 0 0-.2.245l1.674 1.095c-.016.024-.038.053-.067.08l-1.407-1.42zm-.065.08c-.042.042-.074.08-.095.108s-.037.05-.045.065l-.015.024c.017-.028.047-.075.093-.13a1 1 0 0 1 .226-.197l1.076 1.686a1 1 0 0 0 .226-.198 1.01 1.01 0 0 0 .086-.118 1.08 1.08 0 0 1-.052.076 1 1 0 0 1-.095.108L13.2 10.23zm-.134.164a1.49 1.49 0 0 0-.077.133l1.775.92c-.003.005-.01.022-.026.044l-1.672-1.098zm-.085.148c-.01.02-.018.038-.02.045l1.825.82c.003-.007-.004.008-.013.027l-1.79-.89zm-.002.004c-.015.03-.035.072-.055.122l1.86.732c-.01.023-.016.038-.018.042l-1.788-.896zm-.054.12l.008-.02-.01.025 1.86.734-.01.02.01-.022-1.86-.738zm-.005.012l-2.4 6.23 1.866.72 2.4-6.23-1.866-.72zm-2.4 6.23a1.51 1.51 0 0 0 .341 1.608l1.414-1.414a.49.49 0 0 1 .111.525l-1.866-.72zm.343 1.6a1.51 1.51 0 0 0 1.065.44v-2a.49.49 0 0 1 .345.142l-1.4 1.418zm1.065.44c.183 0 .368-.034.544-.102L11.75 17c.058-.022.12-.033.18-.033v2zm.54-.1l6.24-2.395-.717-1.867-6.24 2.395.717 1.867zm6.404-2.477a1.01 1.01 0 0 1-.088.048c.035-.017.14-.068.247-.17l-1.36-1.466a.99.99 0 0 1 .244-.167 1 1 0 0 0-.09.049l1.047 1.704zm-.168.082c.055-.02.1-.042.114-.05l-.854-1.81A.61.61 0 0 1 18 14.59l.705 1.872zm.164-.074a.97.97 0 0 1-.05.026c.015-.007.035-.016.058-.03l-.953-1.76a.95.95 0 0 1 .05-.025.97.97 0 0 0-.058.029l.953 1.758zm-.006.003a1.55 1.55 0 0 0 .123-.072l-1.084-1.68c.016-.01.028-.017.034-.02l.927 1.772zm.287-.203a1 1 0 0 1-.649.29c-.018.001-.033.001-.04.002l-.014-2a1.11 1.11 0 0 0-.056.002 1.01 1.01 0 0 0-.165.023 1 1 0 0 0-.485.267l1.41 1.418zm-.152.124a1.53 1.53 0 0 0 .234-.19l-1.4-1.42a.46.46 0 0 1 .07-.057l1.106 1.666zm.235-.19a1.5 1.5 0 0 0 .277-.38l-1.78-.912c.022-.042.052-.085.09-.125l1.412 1.417zm.286-.398l.012-.026c-.003.006-.008.017-.015.03a1 1 0 0 1-.032.06L17.76 14.77a1.02 1.02 0 0 0-.034.062c-.007.015-.013.027-.015.032a.62.62 0 0 1 .009-.018l1.798.876zm.005-.01c.005-.01.03-.06.05-.117l-1.867-.717c.006-.017.012-.03.014-.035l1.802.868zm.08-.2c-.02.07-.045.124-.05.135a1.1 1.1 0 0 0 .035-.089l-1.89-.65c.01-.033.023-.06.03-.074a.98.98 0 0 0-.045.126l1.922.552zm-.027.08l2.4-6.23-1.866-.72-2.4 6.23 1.866.72zm2.4-6.228c.215-.558.08-1.188-.34-1.61L20.22 9.17c-.137-.137-.18-.343-.11-.526l1.866.72zm-8.227 7.556l1.707-4.43-1.866-.72-1.707 4.43 1.866.72zm.068-4.083l2.732 2.727 1.413-1.415-2.732-2.727-1.413 1.415zm3.08 1.086l-4.44 1.704.717 1.867 4.44-1.704-.717-1.867zm1.785-.493l-2.732-2.727-1.413 1.416 2.732 2.727 1.413-1.415zm-3.08-1.086l4.44-1.704-.717-1.867-4.44 1.704.717 1.867zm3.148-2.998l-1.707 4.43 1.866.72 1.708-4.43-1.866-.72z" fill="#fff" mask="url(#A)"/><defs><filter id="B" x="2.595" y="0" width="26.811" height="36" filterUnits="userSpaceOnUse" color-interpolation-filters="sRGB"><feFlood flood-opacity="0"/><feBlend in="SourceGraphic" result="B"/><feColorMatrix in="SourceAlpha" values="0 0 0 0 0 0 0 0 0 0 0 0 0 0 0 0 0 0 127 0" result="C"/><feOffset dy="4"/><feGaussianBlur stdDeviation="2"/><feComposite in2="C" operator="arithmetic" k2="-1" k3="1"/><feColorMatrix values="0 0 0 0 0 0 0 0 0 0 0 0 0 0 0 0 0 0 0.25 0"/><feBlend in2="B"/></filter><path id="C" d="M16 0C8.608 0 2.595 6.003 2.595 13.383c0 2.52 1.508 5.832 4.483 9.843 2.362 3.184 5.113 6.1 7.006 7.985.528.526 1.222.8 1.916.8s1.388-.263 1.916-.8c1.892-1.885 4.644-4.8 7.006-7.985 2.975-4.01 4.483-7.322 4.483-9.843C29.406 6.003 23.392 0 16 0zm1.197 30.49a1.7 1.7 0 0 1-2.394 0c-3.364-3.352-11.2-11.728-11.2-17.108C3.613 6.564 9.17 1.016 16 1.016s12.387 5.547 12.387 12.366c0 5.38-7.826 13.757-11.2 17.108zm8.134-17.318c-.11-5-4.212-9.05-9.22-9.107a9.3 9.3 0 0 0-5.942 2.048c-.233.187-.25.535-.038.747l.008.007c.18.18.47.198.67.038a8.28 8.28 0 0 1 4.685-1.808v.8c0 .278.215.52.494.53a.51.51 0 0 0 .525-.508v-.83c4.18.254 7.536 3.604 7.8 7.777h-.81c-.28 0-.522.215-.53.493a.51.51 0 0 0 .509.523h.832a8.32 8.32 0 0 1-7.79 7.776v-.81c0-.278-.215-.52-.493-.53a.51.51 0 0 0-.525.508v.83c-4.18-.254-7.536-3.604-7.8-7.777h.81c.28 0 .522-.214.53-.492a.51.51 0 0 0-.509-.524H7.7a8.24 8.24 0 0 1 1.512-4.281.5.5 0 0 0-.058-.642c-.23-.23-.596-.195-.777.06-1.106 1.56-1.745 3.473-1.71 5.533.086 4.98 4.135 9.042 9.123 9.15 5.31.116 9.656-4.222 9.54-9.524zm-4.404-4.71a.51.51 0 0 0-.543-.115l-6.24 2.396c-.016.007-.03.013-.042.02a.49.49 0 0 0-.051.029.51.51 0 0 0-.084.067.5.5 0 0 0-.067.082c-.01.015-.018.03-.026.045a.69.69 0 0 0-.021.047l-2.4 6.23a.51.51 0 0 0 .475.691c.06 0 .123-.01.183-.034l6.24-2.395c.016-.007.03-.013.043-.02a.57.57 0 0 0 .052-.029.53.53 0 0 0 .083-.067c.038-.038.07-.082.093-.127.01-.02.016-.033.02-.047l2.4-6.23c.073-.188.027-.4-.115-.542zm-8.113 8.1l1.707-4.43 2.732 2.727-4.44 1.704zm5.16-2.423l-2.732-2.727 4.44-1.704-1.707 4.43z"/></defs></svg>