<svg xmlns="http://www.w3.org/2000/svg" width="48" height="48" viewBox="0 0 48 48">
  <defs>
    <style>
      .cls-1 {
        fill: #333335;
        fill-rule: evenodd;
      }
    </style>
  </defs>
  <path id="Forma_1" data-name="Forma 1" class="cls-1" d="M1318.73,3289.72a8.8,8.8,0,0,1,4.24-7.42,9.206,9.206,0,0,0-7.19-3.87c-3.06-.31-5.97,1.79-7.52,1.79s-3.95-1.74-6.48-1.7a9.624,9.624,0,0,0-8.13,4.89c-3.47,5.97-.89,14.81,2.49,19.65,1.65,2.37,3.62,5.03,6.2,4.94,2.49-.1,3.43-1.6,6.44-1.6s3.85,1.6,6.49,1.55c2.67-.05,4.37-2.42,6.01-4.79a21.322,21.322,0,0,0,2.72-5.55A8.626,8.626,0,0,1,1318.73,3289.72Zm-4.95-14.49a8.521,8.521,0,0,0,2.04-6.23,8.842,8.842,0,0,0-5.78,2.95,8.126,8.126,0,0,0-2.09,6.04A7.3,7.3,0,0,0,1313.78,3275.23Z" transform="translate(-1284 -3264.5)"/>
</svg>
