<svg xmlns="http://www.w3.org/2000/svg" width="21.781" height="36.437" viewBox="0 0 21.781 36.437">
  <defs>
    <style>
      .cls-1 {
        fill: #fff;
        fill-rule: evenodd;
      }
    </style>
  </defs>
  <path id="Forma_1" data-name="Forma 1" class="cls-1" d="M726.847,564.042a73.828,73.828,0,0,0-1.991-12.933,1.676,1.676,0,0,0-1.646-1.3h-14.5a1.676,1.676,0,0,0-1.645,1.3,73.732,73.732,0,0,0-1.991,12.933,10.857,10.857,0,0,0,10.346,10.8v7.468a2.9,2.9,0,0,1-2.91,2.889h-2.3a0.535,0.535,0,1,0,0,1.07h11.5a0.535,0.535,0,1,0,0-1.07h-2.3a2.9,2.9,0,0,1-2.909-2.889v-7.468A10.857,10.857,0,0,0,726.847,564.042Zm-20.692,0a71.428,71.428,0,0,1,1.963-12.694,0.614,0.614,0,0,1,.595-0.468h14.5a0.612,0.612,0,0,1,.595.468,71.457,71.457,0,0,1,1.964,12.694A9.807,9.807,0,0,1,706.155,564.042ZM716.688,585.2h-1.453A0.744,0.744,0,1,1,716.688,585.2Zm4.186-14.168a8.56,8.56,0,0,0,3.1-3.939,0.533,0.533,0,0,0-.059-0.5,0.542,0.542,0,0,0-.444-0.232H708.455a0.542,0.542,0,0,0-.445.232,0.532,0.532,0,0,0-.058.5A8.6,8.6,0,0,0,720.874,571.027Zm-11.59-3.6h13.355A7.516,7.516,0,0,1,709.284,567.431Zm13.606-11.905a0.535,0.535,0,0,0-.432.623c0.383,2.06.688,4.073,0.86,5.667a0.537,0.537,0,0,0,.535.479,0.386,0.386,0,0,0,.058,0,0.534,0.534,0,0,0,.478-0.588c-0.176-1.645-.478-3.632-0.872-5.748A0.537,0.537,0,0,0,722.89,555.526Zm-0.881-1.648a0.537,0.537,0,0,0,.526.426,0.466,0.466,0,0,0,.111-0.012,0.534,0.534,0,0,0,.417-0.632c-0.08-.384-0.163-0.769-0.246-1.147a0.539,0.539,0,0,0-1.053.229C721.847,553.116,721.929,553.5,722.009,553.878Zm-13.555,10.164a40.264,40.264,0,0,1,.568-5.312,0.539,0.539,0,0,0-1.065-.165,41.24,41.24,0,0,0-.581,5.477A0.539,0.539,0,0,0,708.454,564.042Zm0.384-7.463a0.55,0.55,0,0,0,.1.009,0.539,0.539,0,0,0,.53-0.438c0.069-.374.143-0.756,0.218-1.136a0.539,0.539,0,0,0-1.058-.207c-0.076.385-.15,0.771-0.22,1.149A0.535,0.535,0,0,0,708.838,556.579Z" transform="translate(-705.063 -549.813)"/>
</svg>
