<svg xmlns="http://www.w3.org/2000/svg"
 xmlns:xlink="http://www.w3.org/1999/xlink"
 width="23px" height="22px"  viewBox="0 0 23 22">
<path fill-rule="evenodd"  fill="#ffffff"
 d="M20.84668,20.030304 C20.84668,20.030304 16.225586,15.413239 16.225586,15.413239 C17.46521,13.98941 18.21582,12.131317 18.21582,10.100769 C18.21582,5.6308594 14.577148,1.9995422 10.10791,1.9995422 C5.6343994,1.9995422 2.0,5.635132 2.0,10.100769 C2.0,14.566376 5.63855,18.202393 10.10791,18.202393 C12.140137,18.202393 13.99939,17.452301 15.424561,16.213928 C15.424561,16.213928 20.045532,20.830994 20.045532,20.830994 C20.155151,20.940521 20.302856,20.99942 20.446045,20.99942 C20.589478,20.99942 20.73706,20.94455 20.84668,20.830994 C21.065918,20.611725 21.065918,20.249542 20.84668,20.030304 ZM3.1340332,10.100769 C3.1340332,6.258667 6.2625732,3.1371155 10.103638,3.1371155 C13.948853,3.1371155 17.07312,6.2629395 17.07312,10.100769 C17.07312,13.938599 13.948853,17.068878 10.103638,17.068878 C6.2625732,17.068878 3.1340332,13.943054 3.1340332,10.100769 Z"/>
</svg>