<svg xmlns="http://www.w3.org/2000/svg"
 xmlns:xlink="http://www.w3.org/1999/xlink"
 width="35px" height="40px"  viewBox="0 0 35 40">
<path fill-rule="evenodd"  fill="#ffffff"
 d="M17.499939,1.9997387 C8.953278,1.9997387 1.999939,8.940842 1.999939,17.47335 C1.999939,20.387985 3.7440186,24.217094 7.183655,28.854351 C9.914581,32.536297 13.09613,35.90753 15.284149,38.086967 C15.895142,38.69541 16.697388,38.999954 17.499939,38.999954 C18.302399,38.999954 19.104858,38.69541 19.71576,38.086967 C21.90387,35.90753 25.08545,32.536297 27.816223,28.854351 C31.25586,24.217094 33.00006,20.387985 33.00006,17.47335 C33.00006,8.940842 26.046753,1.9997387 17.499939,1.9997387 ZM18.884216,37.255005 C18.121033,38.01551 16.87909,38.01551 16.115784,37.255005 C12.225586,33.37953 3.1772156,23.694355 3.1772156,17.47335 C3.1772156,9.589272 9.602386,3.1749496 17.499939,3.1749496 C25.397644,3.1749496 31.822815,9.589272 31.822815,17.47335 C31.822815,23.694355 22.774414,33.37953 18.884216,37.255005 ZM28.288513,17.230907 C28.160706,11.449913 23.418823,6.7682114 17.626648,6.7012215 C15.028137,6.6714478 12.635284,7.563595 10.7560425,9.069719 C10.486542,9.28558 10.46756,9.688801 10.711884,9.932945 C10.711884,9.932945 10.720703,9.941452 10.720703,9.941452 C10.930237,10.150719 11.263947,10.170284 11.494873,9.985048 C12.998077,8.781128 14.869507,8.018282 16.911377,7.8945084 C16.911377,7.8945084 16.911377,8.830891 16.911377,8.830891 C16.911377,9.15266 17.15982,9.432959 17.481995,9.442528 C17.815338,9.452524 18.088745,9.185837 18.088745,8.855137 C18.088745,8.855137 18.088745,7.894083 18.088745,7.894083 C22.921936,8.187355 26.80194,12.060699 27.095459,16.885742 C27.095459,16.885742 26.157532,16.885742 26.157532,16.885742 C25.835266,16.885742 25.5542,17.133717 25.544556,17.455486 C25.534607,17.788101 25.801819,18.060741 26.132904,18.060741 C26.132904,18.060741 27.095459,18.060741 27.095459,18.060741 C26.80194,22.886211 22.921814,26.75956 18.088623,27.052193 C18.088623,27.052193 18.088623,26.116234 18.088623,26.116234 C18.088623,25.794464 17.840302,25.513954 17.518036,25.50417 C17.184784,25.494389 16.911255,25.761288 16.911255,26.091774 C16.911255,26.091774 16.911255,27.05283 16.911255,27.05283 C12.078186,26.75956 8.197968,22.886211 7.904663,18.060741 C7.904663,18.060741 8.842499,18.060741 8.842499,18.060741 C9.164856,18.060741 9.445831,17.81298 9.455444,17.491425 C9.465515,17.1586 9.198303,16.885956 8.867096,16.885956 C8.867096,16.885956 7.904663,16.885956 7.904663,16.885956 C8.016235,15.050194 8.647583,13.352028 9.6527405,11.936501 C9.815582,11.7074585 9.78479,11.392921 9.585663,11.194073 C9.582825,11.191307 9.580078,11.188759 9.577209,11.18578 C9.320618,10.929726 8.896515,10.968857 8.686737,11.264679 C7.4077454,13.068756 6.6693726,15.28009 6.710449,17.662415 C6.809906,23.421074 11.491333,28.117664 17.2594,28.243565 C23.40039,28.377548 28.424133,23.36174 28.288513,17.230907 ZM23.196228,11.7865715 C23.0318,11.622391 22.785858,11.570499 22.568756,11.653866 C22.568756,11.653866 15.354523,14.423882 15.354523,14.423882 C15.353394,14.424522 15.352356,14.424736 15.351196,14.425373 C15.335876,14.431541 15.320648,14.438557 15.305786,14.445789 C15.302673,14.446854 15.299469,14.448341 15.296509,14.4496155 C15.279327,14.4585495 15.262634,14.468544 15.246277,14.478752 C15.245575,14.479179 15.2447815,14.479389 15.244202,14.48024 C15.210663,14.501934 15.178864,14.527454 15.149445,14.556801 C15.120026,14.5859375 15.094391,14.61805 15.072418,14.651653 C15.072205,14.651863 15.0720825,14.65229 15.071747,14.652504 C15.060852,14.66909 15.051147,14.686317 15.042206,14.703545 C15.0408325,14.706306 15.039795,14.708862 15.038452,14.711838 C15.030884,14.726936 15.023682,14.742462 15.017487,14.758202 C15.017151,14.759048 15.016571,14.760326 15.016235,14.761177 C15.016235,14.761177 12.241516,21.96344 12.241516,21.96344 C12.158081,22.18015 12.210266,22.425354 12.374695,22.589748 C12.487213,22.701614 12.637695,22.761799 12.791046,22.761799 C12.8619995,22.761799 12.933655,22.748825 13.002197,22.722244 C13.002197,22.722244 20.216553,19.952648 20.216553,19.952648 C20.21759,19.952011 20.218597,19.951797 20.219513,19.950947 C20.235321,19.944992 20.25055,19.937973 20.26587,19.930744 C20.268616,19.929256 20.271606,19.928192 20.274353,19.926704 C20.29184,19.917557 20.309021,19.907776 20.325836,19.89693 C20.32605,19.896717 20.326294,19.896717 20.326538,19.896717 C20.360168,19.874386 20.391968,19.84908 20.421509,19.819733 C20.465912,19.775497 20.501495,19.725517 20.528748,19.672352 C20.529785,19.670223 20.5307,19.667885 20.53183,19.66597 C20.539612,19.649807 20.546936,19.634495 20.553223,19.618118 C20.553589,19.616844 20.554138,19.615993 20.554504,19.61493 C20.554504,19.61493 23.329102,12.413094 23.329102,12.413094 C23.412872,12.196171 23.360687,11.950966 23.196228,11.7865715 ZM13.815979,21.15104 C13.815979,21.15104 15.790192,16.027199 15.790192,16.027199 C15.790192,16.027199 18.948761,19.180233 18.948761,19.180233 C18.948761,19.180233 13.815979,21.15104 13.815979,21.15104 ZM19.78122,18.349335 C19.78122,18.349335 16.622528,15.196297 16.622528,15.196297 C16.622528,15.196297 21.755432,13.225491 21.755432,13.225491 C21.755432,13.225491 19.78122,18.349335 19.78122,18.349335 Z"/>
</svg>