<svg xmlns="http://www.w3.org/2000/svg"
 xmlns:xlink="http://www.w3.org/1999/xlink"
 width="24px" height="40px"  viewBox="0 0 24 40" fill="none">
<path fill-rule="evenodd"  fill="#ffffff"
 d="M22.846558,16.042358 C22.846558,13.554138 22.009277,8.114441 20.855835,3.1088867 C20.679626,2.343872 20.002808,1.8094482 19.209839,1.8094482 C19.209839,1.8094482 4.713501,1.8094482 4.713501,1.8094482 C3.9207764,1.8094482 3.2438354,2.343872 3.067749,3.1088867 C1.9141846,8.114441 1.0769043,13.554138 1.0769043,16.042358 C1.0769043,21.82312 5.670227,26.557373 11.422913,26.837646 C11.422913,26.837646 11.422913,34.30597 11.422913,34.30597 C11.422913,35.898865 10.117493,37.19507 8.513062,37.19507 C8.513062,37.19507 6.213928,37.19507 6.213928,37.19507 C5.916382,37.19507 5.675232,37.43457 5.675232,37.730347 C5.675232,38.025757 5.916382,38.26526 6.213928,38.26526 C6.213928,38.26526 17.709534,38.26526 17.709534,38.26526 C18.007202,38.26526 18.248413,38.025757 18.248413,37.730347 C18.248413,37.43457 18.007202,37.19507 17.709534,37.19507 C17.709534,37.19507 15.4104,37.19507 15.4104,37.19507 C13.805908,37.19507 12.50061,35.898865 12.50061,34.30597 C12.50061,34.30597 12.50061,26.837646 12.50061,26.837646 C18.253235,26.557373 22.846558,21.82312 22.846558,16.042358 ZM2.154602,16.042358 C2.154602,13.968201 2.8292236,8.941345 4.118286,3.3479004 C4.180664,3.076538 4.4310303,2.880005 4.713501,2.880005 C4.713501,2.880005 19.20996,2.880005 19.20996,2.880005 C19.492615,2.880005 19.742798,3.076538 19.80542,3.3479004 C21.09436,8.941345 21.76886,13.968201 21.76886,16.042358 C21.76886,21.411621 17.369385,25.7807 11.961731,25.7807 C6.554138,25.7807 2.154602,21.411621 2.154602,16.042358 ZM12.68811,37.19507 C12.68811,37.19507 11.235352,37.19507 11.235352,37.19507 C11.519653,36.931152 11.7647705,36.62622 11.961731,36.28955 C12.158691,36.62622 12.403809,36.931152 12.68811,37.19507 ZM16.873901,23.026855 C18.284119,22.04303 19.355408,20.681091 19.971924,19.087585 C20.0354,18.923828 20.01355,18.738342 19.913086,18.593323 C19.8125,18.447876 19.646301,18.36084 19.468933,18.36084 C19.468933,18.36084 4.454712,18.36084 4.454712,18.36084 C4.2770996,18.36084 4.11084,18.447876 4.010376,18.593323 C3.909912,18.738342 3.8879395,18.923828 3.951538,19.087585 C4.568054,20.681091 5.6394043,22.04303 7.0496826,23.026855 C8.495178,24.035095 10.193848,24.567627 11.961731,24.567627 C13.729736,24.567627 15.428223,24.035095 16.873901,23.026855 ZM5.2841797,19.43103 C5.2841797,19.43103 18.639221,19.43103 18.639221,19.43103 C18.082031,20.513489 17.268372,21.444153 16.254272,22.151062 C14.991211,23.031921 13.506775,23.497498 11.961731,23.497498 C10.416626,23.497498 8.932373,23.031921 7.6691895,22.151062 C6.6552124,21.444153 5.8414307,20.513489 5.2841797,19.43103 ZM18.88977,7.525818 C18.597229,7.57959 18.403687,7.8583984 18.457825,8.149109 C18.841125,10.2092285 19.146423,12.221558 19.317627,13.816345 C19.34729,14.090881 19.580872,14.294617 19.852783,14.294617 C19.87201,14.294617 19.891235,14.294189 19.910583,14.291443 C20.206482,14.260193 20.420715,13.996887 20.389282,13.702576 C20.212585,12.058228 19.911255,10.070801 19.517456,7.954956 C19.463562,7.6638184 19.182617,7.471985 18.88977,7.525818 ZM18.008545,5.8778076 C18.061401,6.130249 18.285645,6.303772 18.535461,6.303772 C18.571838,6.303772 18.608704,6.300598 18.645752,6.2922974 C18.937256,6.2321167 19.124268,5.9490356 19.063477,5.659851 C18.983276,5.276367 18.900146,4.890808 18.81665,4.5128784 C18.752747,4.224304 18.465637,4.041626 18.174744,4.1049805 C17.884155,4.168396 17.700134,4.4535522 17.7641,4.7423706 C17.84674,5.116455 17.928894,5.49823 18.008545,5.8778076 ZM4.4537354,16.042358 C4.4537354,14.964355 4.6608276,13.027954 5.0217896,10.730286 C5.067566,10.437866 4.866394,10.164612 4.5723877,10.11908 C4.2783813,10.072693 4.0029297,10.273499 3.9570312,10.564636 C3.5877686,12.915283 3.3760376,14.911377 3.3760376,16.042358 C3.3760376,16.337952 3.6173706,16.577637 3.914917,16.577637 C4.2124634,16.577637 4.4537354,16.337952 4.4537354,16.042358 ZM4.8378906,8.578735 C4.8709717,8.585083 4.9038086,8.587891 4.9364014,8.587891 C5.191162,8.587891 5.4177856,8.407288 5.4656982,8.14978 C5.5351562,7.776123 5.6085205,7.393738 5.683716,7.013672 C5.741089,6.723572 5.5509644,6.442444 5.258911,6.3858643 C4.966858,6.3291016 4.6835327,6.517517 4.6261597,6.807373 C4.550171,7.1917114 4.476013,7.578125 4.405884,7.9555664 C4.3517456,8.245911 4.545166,8.524719 4.8378906,8.578735 Z"/>
</svg>
