<svg xmlns="http://www.w3.org/2000/svg"
 xmlns:xlink="http://www.w3.org/1999/xlink"
 width="15px" height="23px"  viewBox="0 0 15 23">
<path fill-rule="evenodd"  fill="#ffffff"
 d="M13.558716,9.632874 C13.558716,8.254822 13.092834,5.2418823 12.450806,2.4691162 C12.352844,2.0454712 11.976074,1.7496338 11.53479,1.7496338 C11.53479,1.7496338 3.4675293,1.7496338 3.4675293,1.7496338 C3.026245,1.7496338 2.6495972,2.0454712 2.5515137,2.4691162 C1.909668,5.2418823 1.4436646,8.254822 1.4436646,9.632874 C1.4436646,12.834839 3.999878,15.457031 7.201416,15.612061 C7.201416,15.612061 7.201416,19.748962 7.201416,19.748962 C7.201416,20.631104 6.4749146,21.34906 5.581909,21.34906 C5.581909,21.34906 4.30249,21.34906 4.30249,21.34906 C4.136902,21.34906 4.0026855,21.48175 4.0026855,21.645508 C4.0026855,21.809265 4.136902,21.941956 4.30249,21.941956 C4.30249,21.941956 10.699951,21.941956 10.699951,21.941956 C10.86554,21.941956 10.999817,21.809265 10.999817,21.645508 C10.999817,21.48175 10.86554,21.34906 10.699951,21.34906 C10.699951,21.34906 9.42041,21.34906 9.42041,21.34906 C8.527527,21.34906 7.8010864,20.631104 7.8010864,19.748962 C7.8010864,19.748962 7.8010864,15.612061 7.8010864,15.612061 C11.002563,15.457031 13.558716,12.834839 13.558716,9.632874 ZM2.043457,9.632874 C2.043457,8.48407 2.4188843,5.699768 3.1362305,2.6013794 C3.1708984,2.451233 3.3103027,2.3423462 3.4675293,2.3423462 C3.4675293,2.3423462 11.534912,2.3423462 11.534912,2.3423462 C11.692139,2.3423462 11.831421,2.451233 11.866211,2.6013794 C12.583557,5.699768 12.959045,8.48407 12.959045,9.632874 C12.959045,12.606873 10.510559,15.026611 7.5012207,15.026611 C4.4917603,15.026611 2.043457,12.606873 2.043457,9.632874 ZM7.9054565,21.34906 C7.9054565,21.34906 7.096924,21.34906 7.096924,21.34906 C7.255188,21.202942 7.3916016,21.034119 7.5012207,20.847595 C7.61084,21.034119 7.7472534,21.202942 7.9054565,21.34906 ZM10.234863,13.501587 C11.019714,12.956726 11.615845,12.202393 11.958923,11.319763 C11.994263,11.229004 11.982178,11.126038 11.9262085,11.045837 C11.870239,10.965271 11.777771,10.916992 11.679016,10.916992 C11.679016,10.916992 3.3234253,10.916992 3.3234253,10.916992 C3.2246704,10.916992 3.13208,10.965271 3.076233,11.045837 C3.0202637,11.126038 3.0080566,11.229004 3.043396,11.319763 C3.3864746,12.202393 3.982727,12.956726 4.767578,13.501587 C5.5720825,14.060242 6.517395,14.35498 7.5012207,14.35498 C8.485107,14.35498 9.430359,14.060242 10.234863,13.501587 ZM3.7850952,11.509888 C3.7850952,11.509888 11.217346,11.509888 11.217346,11.509888 C10.907227,12.109192 10.454346,12.624939 9.890076,13.016235 C9.187073,13.504517 8.361023,13.762268 7.5012207,13.762268 C6.6412964,13.762268 5.8153076,13.504517 5.1123657,13.016235 C4.5480957,12.624939 4.095215,12.109192 3.7850952,11.509888 ZM11.3567505,4.9158936 C11.193909,4.9456787 11.086182,5.1000366 11.116333,5.2612305 C11.32959,6.4020386 11.499573,7.5166016 11.594788,8.400024 C11.611389,8.552124 11.741394,8.665039 11.8927,8.665039 C11.90332,8.665039 11.9140625,8.664612 11.924805,8.663147 C12.089478,8.645874 12.20874,8.499817 12.191162,8.336914 C12.092957,7.4262085 11.925171,6.3252563 11.705994,5.1534424 C11.676025,4.9922485 11.519714,4.8861084 11.3567505,4.9158936 ZM10.866333,4.0026855 C10.895752,4.1428223 11.020508,4.2389526 11.159546,4.2389526 C11.17981,4.2389526 11.200317,4.2372437 11.220886,4.232605 C11.383179,4.1992188 11.487183,4.0424805 11.45343,3.88208 C11.408691,3.6698608 11.362488,3.4563599 11.315979,3.2470703 C11.280518,3.0873413 11.1206665,2.9859009 10.958862,3.020996 C10.796997,3.0560913 10.694702,3.2141113 10.730286,3.3740234 C10.776306,3.5813599 10.82196,3.7925415 10.866333,4.0026855 ZM3.322876,9.632874 C3.322876,9.03595 3.4381104,7.96344 3.6390991,6.690613 C3.6646118,6.5287476 3.5525513,6.3773193 3.388916,6.352234 C3.2253418,6.326538 3.0720215,6.437744 3.0465088,6.598938 C2.8409424,7.90094 2.7232056,9.006592 2.7232056,9.632874 C2.7232056,9.796631 2.8574219,9.929138 3.0230713,9.929138 C3.1886597,9.929138 3.322876,9.796631 3.322876,9.632874 ZM3.536621,5.4990234 C3.5550537,5.5024414 3.5733643,5.5039062 3.5914917,5.5039062 C3.7333984,5.5039062 3.859375,5.4039307 3.8860474,5.2612305 C3.9247437,5.054138 3.9655762,4.8427124 4.007324,4.631958 C4.0393677,4.4714355 3.9335327,4.315735 3.770996,4.2842407 C3.6085205,4.2529907 3.4508057,4.3571777 3.4188843,4.517761 C3.376648,4.730652 3.3353271,4.944824 3.2963257,5.1538696 C3.2661133,5.314636 3.3737793,5.4692383 3.536621,5.4990234 Z"/>
</svg>