<svg xmlns="http://www.w3.org/2000/svg"
 xmlns:xlink="http://www.w3.org/1999/xlink"
 width="27px" height="18px"  viewBox="0 0 27 18">
<path fill-rule="evenodd"  fill="#ffffff"
 d="M25.453552,14.891846 C25.453552,14.891846 21.572876,8.247253 21.572876,8.247253 C21.366882,7.8946533 20.997925,7.684082 20.585815,7.684082 C20.173584,7.684082 19.804626,7.8946533 19.598633,8.247253 C19.598633,8.247253 18.74823,9.703613 18.74823,9.703613 C18.74823,9.703613 17.302124,7.1275024 17.302124,7.1275024 C17.301575,7.126709 17.301147,7.1254272 17.300537,7.1245728 C17.300537,7.1245728 17.05597,6.6887817 17.05597,6.6887817 C17.05597,6.6887817 19.311646,6.6887817 19.311646,6.6887817 C20.253357,6.6887817 21.01941,5.931885 21.01941,5.001892 C21.01941,4.2390747 20.51416,3.5882568 19.790894,3.3824463 C19.781494,3.359436 19.77179,3.3373413 19.761719,3.3145752 C19.682617,3.1374512 19.473206,3.057251 19.293884,3.1350708 C19.114685,3.213379 19.033447,3.420288 19.112488,3.597412 C19.140076,3.6593018 19.164673,3.7235718 19.185486,3.788208 C19.226013,3.9145508 19.335754,4.0076904 19.468506,4.0285034 C19.955933,4.104431 20.309753,4.513794 20.309753,5.001892 C20.309753,5.5457153 19.861938,5.987854 19.311646,5.987854 C19.311646,5.987854 16.662537,5.987854 16.662537,5.987854 C16.662537,5.987854 15.469055,3.8613281 15.469055,3.8613281 C15.697144,3.0387573 16.463318,2.4536743 17.337524,2.4536743 C17.61139,2.4536743 17.875854,2.508789 18.123718,2.6174316 C18.302856,2.69635 18.51239,2.616394 18.592041,2.4396362 C18.671692,2.2626953 18.591003,2.055603 18.411743,1.9771118 C18.072693,1.8282471 17.711182,1.7529297 17.337524,1.7529297 C16.366272,1.7529297 15.492493,2.2816162 15.032349,3.0838623 C15.032349,3.0838623 14.69104,2.47583 14.69104,2.47583 C14.43689,2.0230103 13.972046,1.7525024 13.447693,1.7525024 C12.923218,1.7525024 12.458313,2.0230103 12.204041,2.47583 C12.204041,2.47583 9.893127,6.5928955 9.893127,6.5928955 C9.811401,6.5492554 9.72522,6.511841 9.634277,6.484192 C9.287415,5.670349 8.483887,5.1365356 7.575012,5.1365356 C6.491516,5.1365356 5.58844,5.8831787 5.383484,6.908264 C4.920105,7.0982056 4.6047974,7.548645 4.6047974,8.060913 C4.6047974,8.749573 5.172119,9.309937 5.8692627,9.309937 C5.8692627,9.309937 8.367981,9.309937 8.367981,9.309937 C8.367981,9.309937 6.725952,12.234802 6.725952,12.234802 C6.725952,12.234802 6.045044,11.263733 6.045044,11.263733 C5.82135,10.944519 5.452942,10.75415 5.0598145,10.75415 C4.666748,10.75415 4.298462,10.944519 4.074585,11.263733 C4.074585,11.263733 1.5849609,14.814453 1.5849609,14.814453 C1.34552,15.155823 1.3180542,15.596252 1.5130615,15.963745 C1.7081909,16.331665 2.090454,16.560242 2.5108032,16.560242 C2.5108032,16.560242 4.9005127,16.560242 4.9005127,16.560242 C4.9005127,16.560242 7.6707764,16.560242 7.6707764,16.560242 C7.8668213,16.560242 8.025696,16.40332 8.025696,16.209595 C8.025696,16.016052 7.8668213,15.859314 7.6707764,15.859314 C7.6707764,15.859314 5.5029297,15.859314 5.5029297,15.859314 C5.5029297,15.859314 9.179382,9.309937 9.179382,9.309937 C9.179382,9.309937 9.19342,9.309937 9.19342,9.309937 C9.91626,9.309937 10.518005,8.789734 10.6362915,8.108765 C10.6362915,8.108765 11.055176,7.926941 11.055176,7.926941 C11.435425,7.7617188 11.88269,7.8063965 12.222107,8.043274 C12.222107,8.043274 13.612549,9.012817 13.612549,9.012817 C13.89386,9.208923 14.221191,9.306091 14.547546,9.306091 C14.922607,9.306091 15.296448,9.177856 15.598145,8.924377 C15.598145,8.924377 16.890076,7.838684 16.890076,7.838684 C16.890076,7.838684 18.818604,11.274597 18.818604,11.274597 C18.883362,11.390076 19.004333,11.455139 19.129211,11.455139 C19.187439,11.455139 19.246399,11.440918 19.300964,11.411133 C19.47229,11.317139 19.53418,11.104004 19.439209,10.934937 C19.439209,10.934937 19.149597,10.419006 19.149597,10.419006 C19.149597,10.419006 20.213318,8.597473 20.213318,8.597473 C20.325195,8.405457 20.511108,8.384827 20.585693,8.384827 C20.660217,8.384827 20.84607,8.405457 20.958069,8.597473 C20.958069,8.597473 24.838745,15.242126 24.838745,15.242126 C24.947266,15.42804 24.874817,15.591797 24.838562,15.653687 C24.802368,15.715515 24.694946,15.859314 24.477844,15.859314 C24.477844,15.859314 22.20343,15.859314 22.20343,15.859314 C22.20343,15.859314 20.25476,12.387695 20.25476,12.387695 C20.159607,12.218628 19.943787,12.156921 19.772339,12.250977 C19.600952,12.344727 19.539124,12.558044 19.634033,12.727112 C19.634033,12.727112 21.392029,15.859314 21.392029,15.859314 C21.392029,15.859314 9.649475,15.859314 9.649475,15.859314 C9.453552,15.859314 9.294739,16.016052 9.294739,16.209595 C9.294739,16.40332 9.453552,16.560242 9.649475,16.560242 C9.649475,16.560242 21.994446,16.560242 21.994446,16.560242 C21.994446,16.560242 24.477966,16.560242 24.477966,16.560242 C24.884888,16.560242 25.249512,16.35205 25.453125,16.00415 C25.6568,15.656006 25.656921,15.2404175 25.453552,14.891846 ZM4.6916504,15.859314 C4.6916504,15.859314 2.5108032,15.859314 2.5108032,15.859314 C2.3528442,15.859314 2.2149658,15.776794 2.1417236,15.63855 C2.0684814,15.500732 2.078308,15.341431 2.168274,15.213623 C2.168274,15.213623 4.657898,11.662903 4.657898,11.662903 C4.7506104,11.530823 4.8969727,11.454956 5.0596924,11.454956 C5.222473,11.454956 5.3689575,11.530823 5.461548,11.662903 C5.461548,11.662903 6.342163,12.918701 6.342163,12.918701 C6.342163,12.918701 4.6916504,15.859314 4.6916504,15.859314 ZM9.19342,8.609009 C9.19342,8.609009 8.974609,8.609009 8.974609,8.609009 C8.973816,8.609009 8.973022,8.609009 8.972351,8.609009 C8.972351,8.609009 5.8691406,8.609009 5.8691406,8.609009 C5.5632324,8.609009 5.314331,8.363159 5.314331,8.060913 C5.314331,7.797241 5.5047607,7.570923 5.76709,7.522888 C5.923767,7.4942017 6.04187,7.365906 6.055786,7.2094116 C6.124817,6.4397583 6.7921143,5.8374634 7.57489,5.8374634 C8.24292,5.8374634 8.827332,6.2596436 9.029236,6.8876343 C9.069946,7.01416 9.179504,7.1073 9.312256,7.1277466 C9.473022,7.152832 9.614502,7.225586 9.722961,7.3310547 C9.73645,7.3482666 9.751831,7.364258 9.768616,7.3789062 C9.881348,7.5097046 9.948059,7.6793823 9.948059,7.8635864 C9.948059,8.274658 9.609558,8.609009 9.19342,8.609009 ZM15.138428,8.390564 C14.821167,8.657288 14.362183,8.677673 14.021851,8.439941 C14.021851,8.439941 12.63147,7.470337 12.63147,7.470337 C12.089966,7.0926514 11.376526,7.0218506 10.769409,7.2853394 C10.769409,7.2853394 10.570862,7.371887 10.570862,7.371887 C10.534119,7.2702026 10.486633,7.173889 10.428833,7.0839233 C10.428833,7.0839233 12.824768,2.8156738 12.824768,2.8156738 C12.952148,2.5889282 13.185059,2.453247 13.447693,2.453247 C13.710327,2.453247 13.943176,2.5889282 14.070435,2.8156738 C14.070435,2.8156738 16.14093,6.5043945 16.14093,6.5043945 C16.14148,6.505249 16.141968,6.5061035 16.142517,6.506958 C16.142517,6.506958 16.539062,7.213684 16.539062,7.213684 C16.539062,7.213684 15.138428,8.390564 15.138428,8.390564 ZM14.779907,11.752441 C14.779907,11.752441 14.779907,11.079163 14.779907,11.079163 C14.779907,10.750977 14.509338,10.483643 14.176758,10.483643 C14.176758,10.483643 12.811829,10.483643 12.811829,10.483643 C12.479248,10.483643 12.20874,10.750977 12.20874,11.079163 C12.20874,11.079163 12.20874,11.752441 12.20874,11.752441 C12.20874,12.452759 12.7854,13.022522 13.494263,13.022522 C14.203125,13.022522 14.779907,12.452759 14.779907,11.752441 ZM12.918396,11.752441 C12.918396,11.752441 12.918396,11.184631 12.918396,11.184631 C12.918396,11.184631 14.070251,11.184631 14.070251,11.184631 C14.070251,11.184631 14.070251,11.752441 14.070251,11.752441 C14.070251,12.066345 13.811951,12.321533 13.494263,12.321533 C13.176697,12.321533 12.918396,12.066345 12.918396,11.752441 ZM17.082092,11.33667 C17.082092,11.33667 17.082092,10.791809 17.082092,10.791809 C17.082092,10.598267 16.923218,10.441772 16.727295,10.441772 C16.53125,10.441772 16.372559,10.598267 16.372559,10.791809 C16.372559,10.791809 16.372559,11.33667 16.372559,11.33667 C16.372559,11.530029 16.53125,11.687134 16.727295,11.687134 C16.923218,11.687134 17.082092,11.530029 17.082092,11.33667 ZM10.616089,11.33667 C10.616089,11.33667 10.616089,10.791809 10.616089,10.791809 C10.616089,10.598267 10.457214,10.441772 10.2612915,10.441772 C10.065369,10.441772 9.906494,10.598267 9.906494,10.791809 C9.906494,10.791809 9.906494,11.33667 9.906494,11.33667 C9.906494,11.530029 10.065369,11.687134 10.2612915,11.687134 C10.457214,11.687134 10.616089,11.530029 10.616089,11.33667 Z"/>
</svg>