<svg xmlns="http://www.w3.org/2000/svg"
 xmlns:xlink="http://www.w3.org/1999/xlink"
 width="19px" height="25px"  viewBox="0 0 19 25">
<path fill-rule="evenodd"  fill="#b5b5b5"
 d="M9.5,23.999634 C9.328552,23.999634 9.164917,23.928833 9.046112,23.803589 C8.718018,23.45166 1.0004578,15.151978 1.0004578,10.56958 C1.0004578,5.844116 4.8132935,1.9998779 9.5,1.9998779 C14.186005,1.9998779 17.99939,5.844116 17.99939,10.56958 C17.99939,15.152466 10.282654,23.452515 9.953857,23.803589 C9.835754,23.928833 9.671417,23.999634 9.5,23.999634 ZM9.5,3.2563477 C5.5010986,3.2563477 2.247528,6.536743 2.247528,10.56897 C2.247528,13.741577 7.118347,19.80249 9.5,22.445435 C11.882324,19.801636 16.752441,13.7421875 16.752441,10.56897 C16.753143,6.536743 13.498901,3.2563477 9.5,3.2563477 ZM9.5,13.251343 C7.5174255,13.251343 5.90506,11.625732 5.90506,9.626587 C5.90506,7.628418 7.5174255,6.002075 9.5,6.002075 C11.481873,6.002075 13.09491,7.628418 13.09491,9.626587 C13.09491,11.625732 11.482574,13.251343 9.5,13.251343 ZM9.5,7.2593994 C8.204529,7.2593994 7.151306,8.321045 7.151306,9.626587 C7.151306,10.932861 8.204529,11.994507 9.5,11.994507 C10.794769,11.994507 11.84787,10.932861 11.84787,9.626587 C11.84787,8.321045 10.794769,7.2593994 9.5,7.2593994 Z"/>
</svg>