<svg xmlns="http://www.w3.org/2000/svg"
 xmlns:xlink="http://www.w3.org/1999/xlink"
 width="28px" height="15px"  viewBox="0 0 28 15">
<path fill-rule="evenodd"  fill="#ffffff"
 d="M14.499939,1.0 C8.400238,1.0 2.4939575,6.645508 2.2576294,6.895874 C2.085846,7.062134 1.9999084,7.270752 1.9999084,7.5 C1.9999084,7.728882 2.085846,7.937256 2.2576294,8.104004 C2.5153503,8.354126 8.400238,13.999634 14.499939,13.999634 C20.59964,13.999634 26.50595,8.354126 26.742249,8.104004 C26.914032,7.937256 27.0,7.728882 27.0,7.5 C27.0,7.270752 26.914032,7.062134 26.742249,6.895874 C26.50595,6.645508 20.621033,1.0 14.499939,1.0 ZM14.499939,12.27063 C10.225922,12.27063 5.822937,8.895752 4.1691284,7.479004 C5.822937,6.062378 10.225922,2.687378 14.499939,2.687378 C18.773987,2.687378 23.176971,6.062378 24.83075,7.479004 C23.176971,8.895752 18.773987,12.27063 14.499939,12.27063 ZM11.342743,7.479004 C11.342743,9.166748 12.760223,10.5625 14.521454,10.5625 C16.282593,10.5625 17.700165,9.187378 17.700165,7.479004 C17.700165,5.77063 16.282593,4.395996 14.521454,4.395996 C12.760223,4.395996 11.342743,5.791504 11.342743,7.479004 ZM15.9175415,7.479004 C15.9175415,8.229126 15.294617,8.853882 14.499939,8.853882 C13.726776,8.853882 13.082367,8.249756 13.082367,7.479004 C13.082367,6.70813 13.705261,6.103882 14.499939,6.103882 C15.273102,6.125 15.9175415,6.729126 15.9175415,7.479004 Z"/>
</svg>