<svg xmlns="http://www.w3.org/2000/svg"
 xmlns:xlink="http://www.w3.org/1999/xlink"
 width="19px" height="19px"  viewBox="0 0 19 19">
<path fill-rule="evenodd"  fill="#ffffff"
 d="M5.8286133,9.133667 C5.8286133,8.9305725 5.6643677,8.766388 5.461487,8.766388 C5.258545,8.766388 5.0943604,8.9305725 5.0943604,9.133667 C5.0943604,10.097717 6.157715,11.421783 6.2789307,11.56958 C6.3516846,11.657837 6.4570923,11.70401 6.5631714,11.70401 C6.6448975,11.70401 6.727417,11.676575 6.7959595,11.620422 C6.9526367,11.491974 6.9751587,11.260803 6.846863,11.103424 C6.453125,10.62384 5.8286133,9.664917 5.8286133,9.133667 ZM13.53833,8.766388 C13.335449,8.766388 13.171265,8.9305725 13.171265,9.133667 C13.171265,9.663239 12.546753,10.623016 12.153076,11.103851 C12.024658,11.260803 12.047546,11.491974 12.204224,11.620422 C12.2724,11.676575 12.354797,11.70401 12.437012,11.70401 C12.543091,11.70401 12.648132,11.657837 12.720886,11.56958 C12.842102,11.421783 13.905518,10.097717 13.905518,9.133667 C13.905518,8.9305725 13.741394,8.766388 13.53833,8.766388 ZM9.499878,8.766388 C9.296936,8.766388 9.1328125,8.9305725 9.1328125,9.133667 C9.1328125,9.133667 9.1328125,11.336731 9.1328125,11.336731 C9.1328125,11.539612 9.296936,11.70401 9.499878,11.70401 C9.702881,11.70401 9.867065,11.539612 9.867065,11.336731 C9.867065,11.336731 9.867065,9.133667 9.867065,9.133667 C9.867065,8.9305725 9.702881,8.766388 9.499878,8.766388 ZM13.53833,2.891632 C13.315918,2.891632 13.083435,2.921173 12.84198,2.9660645 C12.033447,2.023285 10.836426,1.4231262 9.499878,1.4231262 C8.163513,1.4231262 6.9664917,2.023285 6.157959,2.9660645 C5.916382,2.921173 5.68396,2.891632 5.461487,2.891632 C3.2346802,2.891632 1.4230957,4.703766 1.4230957,6.9306335 C1.4230957,8.456543 2.2835693,9.843994 3.6345215,10.529846 C3.6345215,10.529846 3.6273193,16.078827 3.6273193,16.078827 C3.6269531,16.479065 3.7824707,16.8555 4.0654297,17.138763 C4.348633,17.422455 4.7246704,17.578552 5.125244,17.578552 C5.125244,17.578552 13.876221,17.578552 13.876221,17.578552 C14.702209,17.578552 15.374084,16.906525 15.374084,16.080536 C15.374084,16.080536 15.374084,10.524536 15.374084,10.524536 C16.71991,9.836548 17.576843,8.45166 17.576843,6.9306335 C17.576843,4.703766 15.765259,2.891632 13.53833,2.891632 ZM14.6397705,16.080536 C14.6397705,16.50119 14.296997,16.843994 13.876099,16.843994 C13.876099,16.843994 5.125122,16.843994 5.125122,16.843994 C4.9212036,16.843994 4.72937,16.764679 4.584961,16.620056 C4.440796,16.475677 4.361084,16.284058 4.36145,16.079254 C4.36145,16.079254 4.3635254,14.641174 4.3635254,14.641174 C4.3635254,14.641174 14.6397705,14.641174 14.6397705,14.641174 C14.6397705,14.641174 14.6397705,16.080536 14.6397705,16.080536 ZM14.867126,9.952881 C14.847656,9.960754 14.829468,9.970093 14.812195,9.981171 C14.765991,10.010101 14.727844,10.047943 14.699585,10.091553 C14.670959,10.135132 14.65155,10.185333 14.643738,10.238922 C14.640442,10.259338 14.639404,10.279968 14.6397705,10.300598 C14.6397705,10.300598 14.6397705,13.906616 14.6397705,13.906616 C14.6397705,13.906616 4.364319,13.906616 4.364319,13.906616 C4.364319,13.906616 4.3690186,10.305908 4.3690186,10.305908 C4.369385,10.285706 4.368347,10.265289 4.3654785,10.245514 C4.357544,10.190002 4.337219,10.138336 4.307434,10.093231 C4.279419,10.051147 4.24292,10.014984 4.1983643,9.986908 C4.1800537,9.97522 4.1607056,9.965424 4.140564,9.957123 C2.935669,9.430145 2.1573486,8.243225 2.1573486,6.9306335 C2.1573486,5.1082764 3.6394653,3.6259766 5.461487,3.6259766 C5.532654,3.6259766 5.607849,3.634674 5.6815186,3.6406555 C5.3101807,4.2858887 5.0943604,5.0323486 5.0943604,5.8292236 C5.0943604,6.031891 5.258545,6.1965027 5.461487,6.1965027 C5.6643677,6.1965027 5.8286133,6.031891 5.8286133,5.8292236 C5.8286133,3.804596 7.475708,2.1574707 9.499878,2.1574707 C11.52417,2.1574707 13.171265,3.804596 13.171265,5.8292236 C13.171265,6.031891 13.335449,6.1965027 13.53833,6.1965027 C13.741394,6.1965027 13.905518,6.031891 13.905518,5.8292236 C13.905518,5.0323486 13.689636,4.286316 13.318176,3.6406555 C13.391968,3.634674 13.467163,3.6259766 13.53833,3.6259766 C15.360474,3.6259766 16.84253,5.10849 16.84253,6.9306335 C16.84253,8.23877 16.067383,9.423981 14.867126,9.952881 Z"/>
</svg>