<svg xmlns="http://www.w3.org/2000/svg"
 xmlns:xlink="http://www.w3.org/1999/xlink"
 width="29px" height="30px"  viewBox="0 0 29 30">
<path fill-rule="evenodd"  fill="#ffffff"
 d="M19.273315,24.398254 C17.99585,24.398254 17.003052,25.43457 17.003052,26.69635 C17.003052,27.958313 18.051758,28.994202 19.273315,28.994202 C20.494751,28.994202 21.543335,27.958313 21.543335,26.69635 C21.543335,25.43457 20.494751,24.398254 19.273315,24.398254 ZM19.273315,27.84259 C18.631714,27.84259 18.168823,27.324585 18.168823,26.69104 C18.168823,26.057251 18.693115,25.538757 19.273315,25.538757 C19.853394,25.538757 20.377686,26.057251 20.377686,26.69104 C20.377686,27.324585 19.853394,27.84259 19.273315,27.84259 ZM6.8845215,24.398254 C5.6069336,24.398254 4.614258,25.43457 4.614258,26.69635 C4.614258,27.958313 5.662964,28.994202 6.8845215,28.994202 C8.161743,28.994202 9.154785,27.958313 9.154785,26.69635 C9.154785,25.43457 8.106079,24.398254 6.8845215,24.398254 ZM6.8845215,27.84259 C6.243042,27.84259 5.779907,27.324585 5.779907,26.69104 C5.779907,26.057251 6.3044434,25.538757 6.8845215,25.538757 C7.525879,25.538757 7.9888916,26.057251 7.9888916,26.69104 C7.9888916,27.330078 7.470215,27.84259 6.8845215,27.84259 ZM24.739624,1.9907227 C24.739624,1.9907227 23.835938,5.4953003 23.835938,5.4953003 C23.835938,5.4953003 1.0108643,5.4953003 1.0108643,5.4953003 C1.0108643,5.4953003 5.22229,17.823364 5.22229,17.823364 C3.810913,18.027527 2.7567139,19.20697 2.7567139,20.722656 C2.7567139,22.38678 4.0340576,23.709412 5.662964,23.709412 C5.662964,23.709412 21.482178,23.709412 21.482178,23.709412 C21.482178,23.709412 21.482178,22.618164 21.482178,22.618164 C21.482178,22.618164 5.662964,22.618164 5.662964,22.618164 C4.675415,22.618164 3.9169922,21.81366 3.9169922,20.777527 C3.9169922,19.741394 4.7313232,18.936462 5.662964,18.936462 C5.662964,18.936462 21.482178,18.936462 21.482178,18.936462 C21.482178,18.936462 21.537964,18.936462 21.537964,18.936462 C21.537964,18.936462 25.66565,3.1365967 25.66565,3.1365967 C25.66565,3.1365967 27.991577,3.1365967 27.991577,3.1365967 C27.991577,3.1365967 27.991577,1.9907227 27.991577,1.9907227 C27.991577,1.9907227 24.739624,1.9907227 24.739624,1.9907227 ZM20.667603,17.790771 C20.667603,17.790771 6.421631,17.790771 6.421631,17.790771 C6.421631,17.790771 2.6396484,6.6418457 2.6396484,6.6418457 C2.6396484,6.6418457 23.518066,6.6418457 23.518066,6.6418457 C23.518066,6.6418457 20.667603,17.790771 20.667603,17.790771 ZM8.396118,9.342285 C8.396118,9.342285 9.56189,9.342285 9.56189,9.342285 C9.56189,9.342285 9.56189,15.834045 9.56189,15.834045 C9.56189,15.834045 8.396118,15.834045 8.396118,15.834045 C8.396118,15.834045 8.396118,9.342285 8.396118,9.342285 ZM12.529419,9.342285 C12.529419,9.342285 13.695068,9.342285 13.695068,9.342285 C13.695068,9.342285 13.695068,15.834045 13.695068,15.834045 C13.695068,15.834045 12.529419,15.834045 12.529419,15.834045 C12.529419,15.834045 12.529419,9.342285 12.529419,9.342285 ZM16.657227,9.342285 C16.657227,9.342285 17.822876,9.342285 17.822876,9.342285 C17.822876,9.342285 17.822876,15.834045 17.822876,15.834045 C17.822876,15.834045 16.657227,15.834045 16.657227,15.834045 C16.657227,15.834045 16.657227,9.342285 16.657227,9.342285 Z"/>
</svg>